<?xml version="1.0" encoding="utf-8"?>
<!-- Generator: Adobe Illustrator 23.0.6, SVG Export Plug-In . SVG Version: 6.00 Build 0)  -->
<svg version="1.1" id="Layer_1" xmlns="http://www.w3.org/2000/svg" xmlns:xlink="http://www.w3.org/1999/xlink" x="0px" y="0px"
	 viewBox="0 0 594 594" style="enable-background:new 0 0 594 594;" xml:space="preserve">
<style type="text/css">
	.st0{fill:#FFFFFF;}
	.st1{enable-background:new    ;}
	.st2{fill:#231F20;}
</style>
<g>
	<g>
		<path class="st0" d="M582.7,454.9H259.6c-4.6,0-9.2,1-13.4,2.9L72.9,535.5c-4.1,1.9-8.4-2.3-6.3-6.1l37.1-66.2
			c2.1-3.8-0.8-8.3-5.4-8.3H10.9c-6.1,0-11.1-5-11.1-11V112c0-6.1,5-11,11.1-11h571.8c6.1,0,11.1,5,11.1,11v331.9
			C593.8,450,588.8,454.9,582.7,454.9z"/>
	</g>
	<g>
		<g class="st1">
			<path class="st2" d="M276.7,336.3c0,7.2-5.7,12.9-12.9,12.9H140c-7,0-12.9-5.7-12.9-12.9V159c0-7.2,6-12.9,12.9-12.9h121.2
				c7.3,0,12.9,5.7,12.9,12.9s-5.7,12.9-12.9,12.9H152.9v62.4h95.8c7.3,0,12.9,6,12.9,12.9c0,7.3-5.7,12.9-12.9,12.9h-95.8v63.2
				h110.8C271,323.4,276.7,329.1,276.7,336.3z"/>
			<path class="st2" d="M393.5,352.6c-56.2,0-72-26.4-73.8-29.5c-3.4-6.2-1-14.2,5.2-17.6c6.2-3.4,14-1,17.3,4.9
				c0.5,0.5,3.1,4.1,9.8,7.8c12.9,7,29.8,8.5,41.4,8.5c17.1,0,30-3.6,37.3-10.4c5.7-5.2,7-11.7,7-16.1c0-9.6-2.8-16.8-9.1-22.8
				c-8-8-22-14-41.7-17.9c-14.2-3.1-26.7-8-36.5-14.8c-8.3-5.7-14.8-12.7-19.4-21c-7.5-12.9-7.5-24.6-7.5-27.7
				c0-13.7,6.5-27.4,17.6-37.3c5.4-4.9,12.2-8.8,19.7-11.7c7.8-2.8,16.3-4.1,25.1-4.1c50.5,0,65.3,23.8,66.8,26.7
				c3.4,6.2,1.3,14.2-4.9,17.6c-6.2,3.4-14,1.3-17.3-4.7c-0.5-0.5-2.8-3.4-8.5-6.7c-6.2-3.1-17.3-7-36-7c-14.2,0-22.8,4.9-27.7,9.3
				c-5.4,4.9-8.8,11.7-8.8,18.4v0.5c0,1,0,7.5,4.7,15c2.8,4.7,6.7,8.5,11.9,11.9c6.7,4.4,15.5,7.8,26.2,10.1
				c24.9,4.9,42.7,12.9,54.6,24.6c11.1,10.9,16.8,24.9,16.8,41.4c0,13.5-5.4,25.9-15.3,35.2C436.2,346.9,417.6,352.6,393.5,352.6z"
				/>
		</g>
		<g>
			<g>
				<path class="st2" d="M202.3,419.7H74.1c-5.9,0-10.7-4.8-10.7-10.7s4.8-10.7,10.7-10.7h128.2c5.9,0,10.7,4.8,10.7,10.7
					S208.2,419.7,202.3,419.7z"/>
			</g>
			<g>
				<path class="st2" d="M519.9,419.7H260.8c-5.9,0-10.7-4.8-10.7-10.7s4.8-10.7,10.7-10.7h259.1c5.9,0,10.7,4.8,10.7,10.7
					S525.8,419.7,519.9,419.7z"/>
			</g>
		</g>
	</g>
</g>
</svg>
