<svg width="128" height="128" viewBox="0 0 128 128" fill="none" xmlns="http://www.w3.org/2000/svg">
<rect y="15" width="128" height="98" rx="11.6364" fill="#4A86A7"/>
<rect x="86" y="89" width="30" height="12" rx="6" fill="white"/>
<rect x="12" y="89" width="66" height="12" rx="6" fill="white"/>
<path d="M32.859 73V33.7273H58.4016V39.6911H39.9734V50.353H57.0785V56.3168H39.9734V67.0362H58.555V73H32.859ZM89.1628 44.5234C88.9839 42.8487 88.2296 41.5447 86.9 40.6115C85.5833 39.6783 83.8702 39.2116 81.7608 39.2116C80.2779 39.2116 79.0059 39.4354 77.9448 39.8828C76.8837 40.3303 76.0719 40.9375 75.5094 41.7045C74.9469 42.4716 74.6593 43.3473 74.6465 44.3317C74.6465 45.1499 74.8319 45.8594 75.2026 46.4602C75.5861 47.0611 76.1039 47.5724 76.7559 47.9943C77.4079 48.4034 78.1302 48.7486 78.9228 49.0298C79.7154 49.3111 80.5144 49.5476 81.3198 49.7393L85.0016 50.6598C86.4846 51.005 87.91 51.4716 89.2779 52.0597C90.6586 52.6477 91.8922 53.3892 92.9789 54.2841C94.0783 55.179 94.9476 56.2592 95.5868 57.5249C96.226 58.7905 96.5456 60.2734 96.5456 61.9737C96.5456 64.2749 95.9576 66.3011 94.7814 68.0526C93.6053 69.7912 91.905 71.1527 89.6806 72.1371C87.4689 73.1087 84.7907 73.5945 81.6458 73.5945C78.5904 73.5945 75.9377 73.1214 73.6877 72.1754C71.4505 71.2294 69.6991 69.8487 68.4334 68.0334C67.1806 66.218 66.503 64.0064 66.4008 61.3984H73.4C73.5023 62.7663 73.9242 63.9041 74.6657 64.8118C75.4071 65.7195 76.3723 66.397 77.5613 66.8445C78.763 67.2919 80.1053 67.5156 81.5883 67.5156C83.1351 67.5156 84.4902 67.2855 85.6536 66.8253C86.8297 66.3523 87.7502 65.7003 88.415 64.8693C89.0797 64.0256 89.4185 63.0412 89.4313 61.9162C89.4185 60.8935 89.1181 60.0497 88.53 59.3849C87.9419 58.7074 87.1174 58.1449 86.0563 57.6974C85.008 57.2372 83.7807 56.8281 82.3745 56.4702L77.9064 55.3196C74.6721 54.4886 72.1152 53.2294 70.236 51.5419C68.3695 49.8416 67.4363 47.5852 67.4363 44.7727C67.4363 42.4588 68.0627 40.4325 69.3155 38.6939C70.5812 36.9553 72.3006 35.6065 74.4739 34.6477C76.6472 33.6761 79.1081 33.1903 81.8567 33.1903C84.6437 33.1903 87.0854 33.6761 89.182 34.6477C91.2914 35.6065 92.9469 36.9425 94.1486 38.6555C95.3503 40.3558 95.9704 42.3118 96.0087 44.5234H89.1628Z" fill="white"/>
</svg>
