<?xml version="1.0" encoding="iso-8859-1"?>
<!-- Generator: Adobe Illustrator 21.0.0, SVG Export Plug-In . SVG Version: 6.00 Build 0)  -->
<svg version="1.1" xmlns="http://www.w3.org/2000/svg" xmlns:xlink="http://www.w3.org/1999/xlink" x="0px" y="0px"
	 viewBox="0 0 100 97.531" style="enable-background:new 0 0 100 97.531;" xml:space="preserve">
<g id="Layer_8">
	<path style="fill-rule:evenodd;clip-rule:evenodd;" d="M49.997,0C22.388,0,0,22.386,0,50.003c0,22.089,14.325,40.829,34.196,47.442
		c2.5,0.459,3.413-1.085,3.413-2.41c0-1.187-0.043-4.331-0.068-8.504c-13.908,3.022-16.843-6.702-16.843-6.702
		c-2.274-5.776-5.551-7.314-5.551-7.314c-4.54-3.102,0.343-3.039,0.343-3.039c5.018,0.354,7.659,5.153,7.659,5.153
		c4.46,7.641,11.702,5.434,14.551,4.155c0.454-3.231,1.746-5.434,3.174-6.684c-11.103-1.262-22.775-5.551-22.775-24.712
		c0-5.458,1.948-9.922,5.147-13.417c-0.514-1.265-2.23-6.349,0.49-13.232c0,0,4.198-1.344,13.75,5.126
		c3.988-1.109,8.265-1.664,12.518-1.683c4.246,0.019,8.524,0.574,12.518,1.683c9.546-6.47,13.736-5.126,13.736-5.126
		c2.728,6.884,1.012,11.967,0.498,13.232c3.205,3.495,5.139,7.958,5.139,13.417c0,19.208-11.69,23.435-22.829,24.673
		c1.795,1.544,3.395,4.595,3.395,9.259c0,6.684-0.061,12.077-0.061,13.716c0,1.337,0.901,2.893,3.438,2.404
		C85.687,90.814,100,72.086,100,50.003C100,22.386,77.611,0,49.997,0z"/>
</g>
<g id="Layer_1">
</g>
</svg>
