<?xml version="1.0" encoding="iso-8859-1"?>
<!-- Generator: Adobe Illustrator 21.0.0, SVG Export Plug-In . SVG Version: 6.00 Build 0)  -->
<svg version="1.1" xmlns="http://www.w3.org/2000/svg" xmlns:xlink="http://www.w3.org/1999/xlink" x="0px" y="0px"
	 viewBox="0 0 98.624 98.624" style="enable-background:new 0 0 98.624 98.624;" xml:space="preserve">
<g id="Layer_9">
	<g>
		<path d="M49.312,0C22.078,0,0,22.078,0,49.312s22.078,49.312,49.312,49.312s49.312-22.078,49.312-49.312S76.546,0,49.312,0z
			 M77.051,22.919L66.01,74.771c-0.207,1.018-1.367,1.517-2.248,0.965L46.783,64.475l-8.931,8.311
			c-0.795,0.68-2.026,0.349-2.372-0.639l-5.815-18.34L14.05,47.403c-1.198-0.546-1.181-2.454,0.047-2.931l60.956-23.237
			C76.151,20.809,77.285,21.765,77.051,22.919z"/>
		<polygon points="37.356,66.708 38.348,57.28 65.886,30.362 32.642,52.194 		"/>
	</g>
</g>
<g id="Layer_1">
</g>
</svg>
