<svg width="180" height="120" viewBox="0 0 180 120" fill="none" xmlns="http://www.w3.org/2000/svg">
<path fill-rule="evenodd" clip-rule="evenodd" d="M0 16C0 7.16344 7.16344 0 16 0H164C172.837 0 180 7.16344 180 16V104C180 112.837 172.837 120 164 120H16C7.16344 120 0 112.837 0 104V16ZM83.632 82H58.16V47.888C58.16 44.7307 59.1627 42.192 61.168 40.272C62.5333 38.992 64.0693 38.16 65.776 37.776C67.4827 37.392 69.5733 37.2 72.048 37.2H83.632V42.832H71.216C66.5227 42.832 64.176 44.7947 64.176 48.72V56.016H78.96V61.648H64.176V76.368H83.632V82ZM119.972 37.2V42.832H108.644C104.335 42.832 102.18 44.5813 102.18 48.08C102.18 49.9573 103.119 51.5573 104.996 52.88C106.916 54.16 109.497 55.3973 112.74 56.592C114.191 57.1467 115.428 57.7227 116.452 58.32C117.476 58.8747 118.5 59.6213 119.524 60.56C120.548 61.4987 121.316 62.7147 121.828 64.208C122.34 65.6587 122.596 67.344 122.596 69.264C122.596 71.3973 122.148 73.3173 121.252 75.024C120.356 76.688 119.204 78.0107 117.796 78.992C116.388 79.9307 114.937 80.656 113.444 81.168C111.993 81.6373 110.564 81.8933 109.156 81.936C108.559 81.9787 107.705 82 106.596 82H96.612V76.368H106.404C109.305 76.368 111.673 75.7707 113.508 74.576C115.343 73.3387 116.26 71.5467 116.26 69.2C116.26 68.048 116.004 67.0453 115.492 66.192C114.98 65.296 114.233 64.528 113.252 63.888C112.313 63.248 111.332 62.6933 110.308 62.224C109.327 61.7547 108.132 61.264 106.724 60.752C106.34 60.624 106.041 60.5173 105.828 60.432C99.1293 57.872 95.78 53.6907 95.78 47.888C95.78 44.304 96.932 41.6373 99.236 39.888C101.54 38.096 104.548 37.2 108.26 37.2H119.972ZM21.5 16C18.4624 16 16 18.4624 16 21.5C16 24.5376 18.4624 27 21.5 27H76.5C79.5376 27 82 24.5376 82 21.5C82 18.4624 79.5376 16 76.5 16H21.5ZM16 98.5C16 95.4624 18.4624 93 21.5 93H56.5C59.5376 93 62 95.4624 62 98.5C62 101.538 59.5376 104 56.5 104H21.5C18.4624 104 16 101.538 16 98.5ZM83.5 93C80.4624 93 78 95.4624 78 98.5C78 101.538 80.4624 104 83.5 104H96.5C99.5376 104 102 101.538 102 98.5C102 95.4624 99.5376 93 96.5 93H83.5ZM118 98.5C118 95.4624 120.462 93 123.5 93H158.5C161.538 93 164 95.4624 164 98.5C164 101.538 161.538 104 158.5 104H123.5C120.462 104 118 101.538 118 98.5ZM102.5 16C99.4624 16 97 18.4624 97 21.5C97 24.5376 99.4624 27 102.5 27H157.5C160.538 27 163 24.5376 163 21.5C163 18.4624 160.538 16 157.5 16H102.5Z" fill="white"/>
</svg>
