<svg width="175" height="17" viewBox="0 0 175 17" fill="none" xmlns="http://www.w3.org/2000/svg">
<path d="M8.7626 16.9923C6.50976 16.9923 4.60351 16.2413 3.10162 14.6817C1.59973 13.1798 0.791016 11.2735 0.791016 8.96294C0.791016 6.7101 1.54196 4.80385 3.10162 3.2442C4.60351 1.7423 6.50976 0.933594 8.7626 0.933594C11.0732 0.933594 12.9217 1.7423 14.3658 3.41749L12.9794 4.74609C11.9397 3.47526 10.4955 2.78207 8.70483 2.78207C7.02964 2.78207 5.64328 3.35973 4.48798 4.45726C3.33268 5.5548 2.75502 7.05669 2.75502 8.90517C2.75502 10.7537 3.33268 12.1978 4.48798 13.3531C5.64328 14.4506 7.02964 15.0283 8.70483 15.0283C10.5533 15.0283 12.113 14.2773 13.3838 12.8332L14.7702 14.2196C14.077 15.086 13.2105 15.7215 12.113 16.2413C11.1887 16.7035 10.0334 16.9923 8.7626 16.9923Z" fill="black"/>
<path d="M18.5832 1.33801V6.19028L18.5254 7.63441H18.5832C18.872 7.11452 19.3341 6.71017 19.9117 6.36358C20.5472 6.01699 21.1826 5.84369 21.8758 5.84369C23.1466 5.84369 24.1864 6.24805 24.8218 7.05676C25.515 7.86547 25.8616 8.90524 25.8616 10.2916V16.7035H23.8975V10.5227C23.8975 8.55865 23.0311 7.63441 21.2981 7.63441C20.4894 7.63441 19.7962 7.981 19.3341 8.61641C18.8142 9.25183 18.5832 10.0028 18.5832 10.8693V16.6458H16.6191V1.33801H18.5832Z" fill="black"/>
<path d="M30.1359 16.6458H28.1719V6.13255H30.0781V7.8655H30.1359C30.3092 7.28785 30.7713 6.82573 31.349 6.47914C31.9844 6.13255 32.562 5.90149 33.1397 5.90149C33.7173 5.90149 34.2372 5.95926 34.6416 6.13255L33.8906 7.98103C33.6596 7.8655 33.313 7.80774 32.8509 7.80774C32.1577 7.80774 31.5223 8.09656 30.9446 8.67422C30.4247 9.25187 30.1359 10.0028 30.1359 10.8693V16.6458Z" fill="black"/>
<path d="M36.2011 7.40319C37.2409 6.36341 38.5117 5.78577 40.0714 5.78577C41.631 5.78577 42.9019 6.30565 43.9416 7.40319C44.9814 8.44296 45.4435 9.77156 45.4435 11.389C45.4435 13.0064 44.9236 14.335 43.9416 15.3748C42.9019 16.4145 41.631 16.9922 40.0714 16.9922C38.5117 16.9922 37.2409 16.4723 36.2011 15.3748C35.1613 14.335 34.6992 13.0064 34.6992 11.389C34.6992 9.77156 35.2191 8.44296 36.2011 7.40319ZM37.703 14.1617C38.3962 14.8549 39.2049 15.2015 40.1291 15.2015C41.0534 15.2015 41.8621 14.8549 42.5553 14.1617C43.2485 13.4685 43.595 12.5443 43.595 11.389C43.595 10.2337 43.2485 9.30943 42.5553 8.61625C41.8621 7.92307 41.0534 7.57648 40.1291 7.57648C39.2049 7.57648 38.3962 7.92307 37.703 8.61625C37.0098 9.30943 36.6632 10.2337 36.6632 11.389C36.6632 12.5443 37.0098 13.4685 37.703 14.1617Z" fill="black"/>
<path d="M47.0605 16.6458V6.13258H48.9668V7.63447H49.0246C49.3134 7.11458 49.7755 6.71023 50.4109 6.36364C51.0463 6.01705 51.624 5.84375 52.2594 5.84375C53.8768 5.84375 54.9744 6.53693 55.552 7.86553C56.4185 6.53693 57.6316 5.84375 59.1912 5.84375C60.4043 5.84375 61.3863 6.2481 61.9639 7.05682C62.5994 7.86553 62.8882 8.9053 62.8882 10.2917V16.7036H60.9242V10.5227C60.9242 9.48295 60.7509 8.732 60.3465 8.26988C59.9422 7.80776 59.3645 7.63447 58.6136 7.63447C57.8626 7.63447 57.2272 7.98106 56.7073 8.61647C56.1874 9.25189 55.9564 10.0028 55.9564 10.8693V16.6458H53.9924V10.5227C53.9924 9.48295 53.8191 8.732 53.4147 8.26988C53.0104 7.80776 52.4327 7.63447 51.6818 7.63447C50.9308 7.63447 50.2954 7.98106 49.7755 8.61647C49.2556 9.25189 49.0246 10.0028 49.0246 10.8693V16.6458H47.0605Z" fill="black"/>
<path d="M69.9952 16.9924C68.4356 16.9924 67.1069 16.4725 66.1249 15.4327C65.1429 14.393 64.623 13.0644 64.623 11.4469C64.623 9.94504 65.0852 8.61645 66.0672 7.51891C67.0492 6.42138 68.2623 5.90149 69.7642 5.90149C71.3238 5.90149 72.5369 6.42137 73.5189 7.40338C74.5009 8.38539 74.9052 9.77175 74.9052 11.4469V11.7935H66.6448C66.7026 12.8333 67.0492 13.6998 67.6846 14.2774C68.32 14.9128 69.071 15.2017 69.9374 15.2017C71.3238 15.2017 72.3058 14.624 72.8257 13.411L74.5586 14.1619C74.2121 14.9706 73.6344 15.6638 72.8835 16.1837C72.1325 16.7036 71.1505 16.9924 69.9952 16.9924ZM72.8257 10.1183C72.7679 9.54069 72.5369 8.96304 72.017 8.38539C71.4971 7.8655 70.7462 7.57668 69.7642 7.57668C69.0132 7.57668 68.4355 7.80774 67.8579 8.26986C67.2802 8.73198 66.9337 9.30963 66.7604 10.1183H72.8257Z" fill="black"/>
<path d="M98.7597 1.33801L94.6584 16.6458H92.6366L89.344 6.53687H89.2863L85.9937 16.6458H83.9719L79.6973 1.33801H81.7768L85.0117 13.3531H85.0694L88.362 3.35979H90.2105L93.5031 13.3531H93.5609L96.6224 1.33801H98.7597Z" fill="black"/>
<path d="M103.845 16.9924C102.285 16.9924 100.957 16.4725 99.9746 15.4327C98.9925 14.393 98.4727 13.0644 98.4727 11.4469C98.4727 9.94504 98.9348 8.61645 99.9168 7.51891C100.899 6.42138 102.112 5.90149 103.614 5.90149C105.173 5.90149 106.386 6.42137 107.368 7.40338C108.35 8.38539 108.755 9.77175 108.755 11.4469V11.7935H100.494C100.552 12.8333 100.899 13.6998 101.534 14.2774C102.17 14.9128 102.921 15.2017 103.787 15.2017C105.173 15.2017 106.155 14.624 106.675 13.411L108.408 14.1619C108.062 14.9706 107.484 15.6638 106.733 16.1837C105.924 16.7036 105 16.9924 103.845 16.9924ZM106.675 10.1183C106.618 9.54069 106.386 8.96304 105.867 8.38539C105.347 7.8655 104.596 7.57668 103.614 7.57668C102.863 7.57668 102.285 7.80774 101.708 8.26986C101.13 8.73198 100.783 9.30963 100.61 10.1183H106.675Z" fill="black"/>
<path d="M116.09 16.9923C115.282 16.9923 114.588 16.8191 113.953 16.4725C113.318 16.1259 112.856 15.7215 112.509 15.2016H112.451V16.6458H110.545V1.33801H112.509V6.19028L112.451 7.63441H112.509C112.798 7.11452 113.318 6.71017 113.953 6.36358C114.588 6.01699 115.282 5.84369 116.09 5.84369C117.419 5.84369 118.632 6.36357 119.614 7.46111C120.596 8.55865 121.116 9.82948 121.116 11.4469C121.116 13.0066 120.596 14.3352 119.614 15.4327C118.632 16.4147 117.477 16.9923 116.09 16.9923ZM115.802 15.2016C116.726 15.2016 117.477 14.855 118.17 14.1619C118.863 13.4687 119.152 12.5444 119.152 11.3891C119.152 10.2338 118.805 9.30959 118.17 8.61641C117.535 7.92323 116.726 7.57664 115.802 7.57664C114.877 7.57664 114.069 7.92323 113.433 8.61641C112.798 9.30959 112.451 10.2338 112.451 11.3891C112.451 12.5444 112.798 13.4687 113.433 14.1619C114.069 14.855 114.877 15.2016 115.802 15.2016Z" fill="black"/>
<path d="M131.572 16.9922C130.475 16.9922 129.377 16.6456 128.337 15.8946C127.298 15.1437 126.604 14.1617 126.258 12.8331L128.049 12.0821C128.28 12.9486 128.684 13.6418 129.377 14.2194C130.07 14.7971 130.763 15.0859 131.63 15.0859C132.496 15.0859 133.19 14.8549 133.825 14.3927C134.403 13.9306 134.749 13.353 134.749 12.5443C134.749 11.6778 134.46 11.0424 133.825 10.5802C133.247 10.1181 132.265 9.71376 130.937 9.30941C129.608 8.90505 128.568 8.3274 127.875 7.63422C127.182 6.94104 126.835 6.07456 126.835 5.03479C126.835 3.93726 127.298 2.95525 128.164 2.14654C129.031 1.33783 130.186 0.933472 131.572 0.933472C132.843 0.933472 133.941 1.28006 134.749 1.91548C135.558 2.55089 136.078 3.24408 136.309 4.05279L134.518 4.80373C134.403 4.34161 134.056 3.87949 133.594 3.47514C133.074 3.07078 132.439 2.83972 131.63 2.83972C130.879 2.83972 130.244 3.07078 129.724 3.47514C129.204 3.87949 128.915 4.39938 128.915 5.03479C128.915 5.61244 129.146 6.07456 129.666 6.47892C130.186 6.88327 130.879 7.22987 131.861 7.51869C132.612 7.74975 133.247 7.98081 133.767 8.21187C134.287 8.44293 134.807 8.73176 135.327 9.13611C135.847 9.54047 136.251 10.0026 136.482 10.5225C136.771 11.1001 136.887 11.7355 136.887 12.4865C136.887 13.2374 136.713 13.8729 136.424 14.4505C136.136 15.0282 135.731 15.4903 135.211 15.8369C134.692 16.1835 134.172 16.4145 133.594 16.6456C132.785 16.8766 132.208 16.9922 131.572 16.9922Z" fill="black"/>
<path d="M142.72 16.8192C141.623 16.8192 140.814 16.5303 140.236 15.9527C139.659 15.375 139.37 14.5663 139.37 13.4688V7.9811H137.521V6.19038H139.37V3.01331H141.334V6.19038H143.876V7.9811H141.334V13.3533C141.334 14.5086 141.796 15.0862 142.72 15.0862C143.067 15.0862 143.356 15.0284 143.645 14.9129L144.338 16.5881C143.876 16.7036 143.356 16.8192 142.72 16.8192Z" fill="black"/>
<path d="M146.59 7.40319C147.63 6.36341 148.9 5.78577 150.46 5.78577C152.02 5.78577 153.291 6.30565 154.33 7.40319C155.37 8.44296 155.832 9.77156 155.832 11.389C155.832 13.0064 155.312 14.335 154.33 15.3748C153.291 16.4145 152.02 16.9922 150.46 16.9922C148.9 16.9922 147.63 16.4723 146.59 15.3748C145.55 14.335 145.088 13.0064 145.088 11.389C145.088 9.77156 145.608 8.44296 146.59 7.40319ZM148.034 14.1617C148.727 14.8549 149.536 15.2015 150.46 15.2015C151.384 15.2015 152.193 14.8549 152.886 14.1617C153.579 13.4685 153.926 12.5443 153.926 11.389C153.926 10.2337 153.579 9.30943 152.886 8.61625C152.193 7.92307 151.384 7.57648 150.46 7.57648C149.536 7.57648 148.727 7.92307 148.034 8.61625C147.341 9.30943 146.994 10.2337 146.994 11.389C147.052 12.5443 147.398 13.4685 148.034 14.1617Z" fill="black"/>
<path d="M159.413 16.6458H157.449V6.13255H159.355V7.8655H159.413C159.587 7.28785 160.049 6.82573 160.626 6.47914C161.262 6.13255 161.839 5.90149 162.417 5.90149C162.995 5.90149 163.515 5.95926 163.919 6.13255L163.168 7.98103C162.937 7.8655 162.59 7.80774 162.128 7.80774C161.435 7.80774 160.8 8.09656 160.222 8.67422C159.644 9.25187 159.413 10.0028 159.413 10.8693V16.6458Z" fill="black"/>
<path d="M169.292 16.9924C167.732 16.9924 166.404 16.4725 165.422 15.4327C164.44 14.393 163.92 13.0644 163.92 11.4469C163.92 9.94504 164.382 8.61645 165.364 7.51891C166.346 6.42138 167.559 5.90149 169.061 5.90149C170.621 5.90149 171.834 6.42137 172.816 7.40338C173.798 8.38539 174.202 9.77175 174.202 11.4469V11.7935H165.942C165.999 12.8333 166.346 13.6998 166.981 14.2774C167.617 14.9128 168.368 15.2017 169.234 15.2017C170.621 15.2017 171.603 14.624 172.123 13.411L173.856 14.1619C173.509 14.9706 172.931 15.6638 172.18 16.1837C171.372 16.7036 170.447 16.9924 169.292 16.9924ZM172.123 10.1183C172.065 9.54069 171.834 8.96304 171.314 8.38539C170.794 7.8655 170.043 7.57668 169.061 7.57668C168.31 7.57668 167.732 7.80774 167.155 8.26986C166.577 8.73198 166.231 9.30963 166.057 10.1183H172.123Z" fill="black"/>
</svg>
