<svg width="56" height="48" viewBox="0 0 56 48" fill="none" xmlns="http://www.w3.org/2000/svg">
<mask id="mask0_293_322" style="mask-type:alpha" maskUnits="userSpaceOnUse" x="0" y="0" width="56" height="48">
<path fill-rule="evenodd" clip-rule="evenodd" d="M0.798828 0.209106H55.7865L55.7901 44.2101C55.7901 46.283 54.108 47.9616 52.0387 47.9616H4.55029C2.4774 47.9616 0.798828 46.2794 0.798828 44.2101V0.209106ZM22.0451 10.4614H34.5404C35.9223 10.4614 37.0401 9.33996 37.0401 7.96166C37.0401 6.57973 35.9223 5.46189 34.5404 5.46189H22.0451C20.6632 5.46189 19.5454 6.57973 19.5454 7.96166C19.5454 9.34358 20.6632 10.4614 22.0451 10.4614Z" fill="#F1F3F4"/>
</mask>
<g mask="url(#mask0_293_322)">
<path d="M55.7865 0.209106H0.798828V44.2101C0.798828 46.2794 2.4774 47.9616 4.55029 47.9616H52.0387C54.108 47.9616 55.7901 46.283 55.7901 44.2101L55.7865 0.209106Z" fill="#F1F3F4"/>
<path d="M55.7865 0.209106H0.798828V24.212H55.7865V0.209106Z" fill="#E8EAED"/>
<mask id="mask1_293_322" style="mask-type:alpha" maskUnits="userSpaceOnUse" x="0" y="0" width="56" height="48">
<path d="M55.7865 0.209106H0.798828V44.2101C0.798828 46.2794 2.4774 47.9616 4.55029 47.9616H52.0387C54.108 47.9616 55.7901 46.283 55.7901 44.2101L55.7865 0.209106Z" fill="#F1F3F4"/>
</mask>
<g mask="url(#mask1_293_322)">
<path d="M7.73047 32.3334L11.0044 42.3216L18.0153 50.1465L28.293 32.337L48.8555 32.3334C44.7495 25.2356 37.0801 20.464 28.293 20.464C19.5058 20.464 11.8365 25.2356 7.73047 32.3334Z" fill="url(#paint0_linear_293_322)"/>
<path d="M28.2895 67.9596L35.3004 60.1311L38.5707 50.1465H18.0118L7.73058 32.3334C3.63907 39.4384 3.3388 48.4715 7.7342 56.083C12.126 63.6944 20.0956 67.9524 28.2895 67.9596Z" fill="url(#paint1_linear_293_322)"/>
<path d="M48.8555 32.337H28.293L38.5742 50.1465L28.293 67.9597C36.4905 67.9524 44.4601 63.6945 48.8519 56.083C53.2473 48.4716 52.947 39.442 48.8555 32.337Z" fill="url(#paint2_linear_293_322)"/>
<path d="M28.2932 56.083C34.8485 56.083 40.1626 50.7673 40.1626 44.21C40.1626 37.6528 34.8485 32.337 28.2932 32.337C21.7379 32.337 16.4238 37.6528 16.4238 44.21C16.4238 50.7673 21.7379 56.083 28.2932 56.083Z" fill="#F1F3F4"/>
<path d="M28.293 53.8579C33.6195 53.8579 37.9375 49.5382 37.9375 44.2097C37.9375 38.8812 33.6195 34.5615 28.293 34.5615C22.9665 34.5615 18.6484 38.8812 18.6484 44.2097C18.6484 49.5382 22.9665 53.8579 28.293 53.8579Z" fill="#1A73E8"/>
<path opacity="0.1" d="M55.7865 24.2119H0.798828V24.523H55.7865V24.2119Z" fill="#BDC1C6"/>
<path opacity="0.1" d="M55.7865 23.8972H0.798828V24.2083H55.7865V23.8972Z" fill="#BDC1C6"/>
</g>
</g>
<defs>
<linearGradient id="paint0_linear_293_322" x1="7.73047" y1="35.3052" x2="48.8555" y2="35.3052" gradientUnits="userSpaceOnUse">
<stop stop-color="#D93025"/>
<stop offset="1" stop-color="#EA4335"/>
</linearGradient>
<linearGradient id="paint1_linear_293_322" x1="30.8649" y1="66.4727" x2="10.2981" y2="30.851" gradientUnits="userSpaceOnUse">
<stop stop-color="#1E8E3E"/>
<stop offset="1" stop-color="#34A853"/>
</linearGradient>
<linearGradient id="paint2_linear_293_322" x1="45.4551" y1="32.2892" x2="24.889" y2="67.9097" gradientUnits="userSpaceOnUse">
<stop stop-color="#FBBC04"/>
<stop offset="1" stop-color="#FCC934"/>
</linearGradient>
</defs>
</svg>
