<svg width="106" height="13" viewBox="0 0 106 13" fill="none" xmlns="http://www.w3.org/2000/svg">
<path d="M0.947266 11.8465L5.33741 0.293457H7.0126L11.4027 11.8465H9.72756L8.63002 8.72716H3.77775L2.62245 11.8465H0.947266ZM4.23987 7.3408H8.11013L6.20388 2.14194H6.14612L4.23987 7.3408Z" fill="black"/>
<path d="M14.0599 11.8466L10.8828 3.93274H12.5002L14.8108 10.0558H14.8686L17.237 3.93274H18.7966L15.5618 11.8466H14.0599Z" fill="black"/>
<path d="M22.0878 12.1352C21.2213 12.1352 20.5281 11.9042 19.9505 11.3843C19.3728 10.9221 19.084 10.229 19.084 9.47802C19.084 8.61154 19.4306 7.91836 20.066 7.45624C20.7592 6.99412 21.5679 6.7053 22.5499 6.7053C23.4164 6.7053 24.1673 6.87859 24.6872 7.16742V6.99412C24.6872 6.41647 24.5139 5.95435 24.1095 5.60776C23.7052 5.26117 23.2431 5.08787 22.6654 5.08787C22.2611 5.08787 21.8567 5.2034 21.5101 5.3767C21.1635 5.60776 20.9325 5.83882 20.8169 6.24318L19.4306 5.66552C19.6039 5.2034 19.9505 4.74128 20.5281 4.33693C21.048 3.93257 21.7989 3.75928 22.6654 3.75928C23.7052 3.75928 24.5139 4.0481 25.2071 4.62575C25.9003 5.2034 26.1891 6.06988 26.1891 7.10965V11.9042H24.745V10.8066H24.6872C24.1095 11.6731 23.2431 12.1352 22.0878 12.1352ZM22.3188 10.7489C22.9542 10.7489 23.4741 10.5178 23.994 10.0557C24.5139 9.59355 24.745 9.07366 24.745 8.43825C24.3406 8.09166 23.7052 7.91836 22.8387 7.91836C22.0878 7.91836 21.5679 8.09166 21.2213 8.38048C20.8747 8.66931 20.6436 9.07366 20.6436 9.47802C20.6436 9.88237 20.8169 10.1712 21.1635 10.4023C21.5101 10.6333 21.8567 10.7489 22.3188 10.7489Z" fill="black"/>
<path d="M29.4821 1.96882C29.2511 2.19988 29.02 2.25764 28.7312 2.25764C28.4423 2.25764 28.2113 2.14211 27.9802 1.96882C27.7492 1.73776 27.6914 1.5067 27.6914 1.21787C27.6914 0.929046 27.8069 0.697986 27.9802 0.466926C28.2113 0.235866 28.4423 0.178101 28.7312 0.178101C29.02 0.178101 29.2511 0.293631 29.4821 0.466926C29.7132 0.697986 29.7709 0.929046 29.7709 1.21787C29.7709 1.5067 29.6554 1.73776 29.4821 1.96882ZM29.4821 11.8466H27.9802V3.93283H29.4821V11.8466Z" fill="black"/>
<path d="M32.8925 11.8465H31.3906V0.293457H32.8925V11.8465Z" fill="black"/>
<path d="M37.1093 12.1352C36.2428 12.1352 35.5496 11.9042 34.9719 11.3843C34.3943 10.9221 34.1055 10.229 34.1055 9.47802C34.1055 8.61154 34.4521 7.91836 35.0875 7.45624C35.7807 6.99412 36.5894 6.7053 37.5714 6.7053C38.4378 6.7053 39.1888 6.87859 39.7087 7.16742V6.99412C39.7087 6.41647 39.5354 5.95435 39.131 5.60776C38.7267 5.26117 38.2646 5.08787 37.6869 5.08787C37.2825 5.08787 36.8782 5.2034 36.5316 5.3767C36.185 5.60776 35.954 5.83882 35.8384 6.24318L34.4521 5.66552C34.6254 5.2034 34.9719 4.74128 35.5496 4.33693C36.0695 3.93257 36.8204 3.75928 37.6869 3.75928C38.7267 3.75928 39.5354 4.0481 40.2286 4.62575C40.9218 5.2034 41.2106 6.06988 41.2106 7.10965V11.9042H39.7664V10.8066H39.7087C39.131 11.6731 38.2646 12.1352 37.1093 12.1352ZM37.3981 10.7489C38.0335 10.7489 38.5534 10.5178 39.0733 10.0557C39.5932 9.59355 39.8242 9.07366 39.8242 8.43825C39.4199 8.09166 38.7844 7.91836 37.918 7.91836C37.167 7.91836 36.6471 8.09166 36.3005 8.38048C35.954 8.66931 35.7229 9.07366 35.7229 9.47802C35.7229 9.88237 35.8962 10.1712 36.2428 10.4023C36.5894 10.6333 36.936 10.7489 37.3981 10.7489Z" fill="black"/>
<path d="M47.1016 12.1353C46.524 12.1353 45.9463 12.0198 45.4842 11.7309C45.0221 11.4999 44.6177 11.1533 44.3867 10.7489H44.3289V11.8465H42.8848V0.293457H44.3867V3.93266L44.3289 5.03019H44.3867C44.6177 4.62584 44.9643 4.33701 45.4842 4.04819C46.0041 3.75936 46.524 3.64383 47.1016 3.64383C48.1414 3.64383 49.0079 4.04819 49.7588 4.8569C50.5098 5.66561 50.8563 6.64762 50.8563 7.86068C50.8563 9.07375 50.5098 10.0558 49.7588 10.8645C49.0079 11.7309 48.1414 12.1353 47.1016 12.1353ZM46.8706 10.7489C47.5637 10.7489 48.1414 10.4601 48.6613 9.94022C49.1812 9.42034 49.4122 8.72716 49.4122 7.86068C49.4122 6.99421 49.1812 6.30103 48.6613 5.78114C48.1414 5.26125 47.5637 4.97243 46.8706 4.97243C46.1774 4.97243 45.5997 5.20349 45.0798 5.72337C44.6177 6.24326 44.3289 6.93644 44.3289 7.80292C44.3289 8.66939 44.56 9.36257 45.0798 9.88246C45.542 10.5179 46.1774 10.7489 46.8706 10.7489Z" fill="black"/>
<path d="M53.6288 11.8465H52.127V0.293457H53.6288V11.8465Z" fill="black"/>
<path d="M58.944 12.1354C57.7309 12.1354 56.7489 11.731 55.9979 10.9223C55.247 10.1136 54.9004 9.1316 54.9004 7.91854C54.9004 6.76323 55.247 5.78123 55.9979 4.91475C56.7489 4.04828 57.6731 3.64392 58.7706 3.64392C59.926 3.64392 60.908 4.04828 61.6011 4.79922C62.2943 5.55017 62.6409 6.58994 62.6409 7.86077V8.1496H56.4023C56.46 8.95831 56.6911 9.59372 57.211 10.0558C57.6731 10.518 58.2508 10.749 58.944 10.749C59.9837 10.749 60.7347 10.2869 61.139 9.36266L62.4676 9.94031C62.2366 10.5757 61.7744 11.0956 61.1968 11.5C60.5614 11.9043 59.8104 12.1354 58.944 12.1354ZM61.0813 6.93653C61.0235 6.47441 60.8502 6.07005 60.4458 5.6657C60.0415 5.26134 59.5216 5.03028 58.7129 5.03028C58.1352 5.03028 57.6731 5.20358 57.2688 5.55017C56.8644 5.89676 56.5756 6.35888 56.46 6.93653H61.0813Z" fill="black"/>
<path d="M69.2243 1.96882C68.9933 2.19988 68.7622 2.25764 68.4734 2.25764C68.1846 2.25764 67.9535 2.14211 67.7224 1.96882C67.4914 1.79552 67.4336 1.5067 67.4336 1.21787C67.4336 0.929046 67.5491 0.697986 67.7224 0.466926C67.9535 0.235866 68.1846 0.178101 68.4734 0.178101C68.7622 0.178101 68.9933 0.293631 69.2243 0.466926C69.4554 0.697986 69.5131 0.929046 69.5131 1.21787C69.5131 1.5067 69.3976 1.73776 69.2243 1.96882ZM69.2243 11.8466H67.7224V3.93283H69.2243V11.8466Z" fill="black"/>
<path d="M72.575 3.93275V5.03028H72.6328C72.8638 4.62593 73.2104 4.3371 73.6725 4.04828C74.1347 3.75945 74.6545 3.64392 75.1744 3.64392C76.1564 3.64392 76.9074 3.93275 77.4273 4.56816C77.9472 5.14581 78.1782 5.95452 78.1782 6.9943V11.8466H76.6763V7.22536C76.6763 5.78123 76.0409 5.03028 74.7123 5.03028C74.0769 5.03028 73.6148 5.26134 73.2104 5.78123C72.8061 6.30112 72.6328 6.821 72.6328 7.51418V11.9043H71.1309V3.93275H72.575Z" fill="black"/>
<path d="M86.9007 12.0199C86.092 12.0199 85.4566 11.7889 84.9944 11.3845C84.5323 10.9224 84.359 10.3447 84.359 9.53604V5.37695H82.9727V3.99059H84.359V1.56445H85.8609V3.99059H87.8249V5.37695H85.8609V9.42051C85.8609 10.287 86.2075 10.6913 86.9007 10.6913C87.1895 10.6913 87.4206 10.6336 87.5939 10.5758L88.1138 11.8466C87.7672 11.9044 87.3628 12.0199 86.9007 12.0199Z" fill="black"/>
<path d="M90.7714 0.293457V3.93266L90.7137 5.03019H90.7714C91.0025 4.62584 91.3491 4.33701 91.8112 4.04819C92.2733 3.75936 92.7932 3.64383 93.3131 3.64383C94.2951 3.64383 95.046 3.93266 95.5659 4.56807C96.0858 5.14572 96.3169 5.95443 96.3169 6.99421V11.8465H94.815V7.22527C94.815 5.78114 94.1796 5.03019 92.851 5.03019C92.2155 5.03019 91.7534 5.26125 91.3491 5.78114C90.9447 6.30103 90.7714 6.82091 90.7714 7.51409V11.9042H89.2695V0.351221H90.7714V0.293457Z" fill="black"/>
<path d="M101.631 12.1354C100.418 12.1354 99.4364 11.731 98.6854 10.9223C97.9345 10.1136 97.5879 9.1316 97.5879 7.91854C97.5879 6.76323 97.9345 5.78123 98.6854 4.91475C99.4364 4.04828 100.361 3.64392 101.458 3.64392C102.613 3.64392 103.595 4.04828 104.289 4.79922C104.982 5.55017 105.328 6.58994 105.328 7.86077V8.1496H99.0898C99.1476 8.95831 99.3786 9.59372 99.8985 10.0558C100.361 10.518 100.938 10.749 101.631 10.749C102.671 10.749 103.422 10.2869 103.827 9.36266L105.155 9.94031C104.924 10.5757 104.462 11.0956 103.884 11.5C103.249 11.9043 102.498 12.1354 101.631 12.1354ZM103.769 6.93653C103.711 6.47441 103.538 6.07005 103.133 5.6657C102.729 5.26134 102.209 5.03028 101.4 5.03028C100.823 5.03028 100.361 5.20358 99.9563 5.55017C99.5519 5.89676 99.2631 6.35888 99.1475 6.93653H103.769Z" fill="black"/>
</svg>
