<svg width="142" height="23" viewBox="0 0 142 23" fill="none" xmlns="http://www.w3.org/2000/svg">
<path d="M0 3.11225C0 1.66954 1.16954 0.5 2.61225 0.5H26.1224C27.5652 0.5 28.7347 1.66954 28.7347 3.11224V19.8878C28.7347 21.3305 27.5652 22.5 26.1224 22.5H2.61225C1.16954 22.5 0 21.3305 0 19.8878V3.11225Z" fill="#4A86A7"/>
<path d="M19.3061 18.4592C19.3061 17.7153 19.9092 17.1122 20.6531 17.1122H24.6939C25.4378 17.1122 26.0408 17.7153 26.0408 18.4592C26.0408 19.2031 25.4378 19.8061 24.6939 19.8061H20.6531C19.9092 19.8061 19.3061 19.2031 19.3061 18.4592Z" fill="white"/>
<path d="M2.69388 18.4592C2.69388 17.7153 3.29692 17.1122 4.04082 17.1122H16.1633C16.9072 17.1122 17.5102 17.7153 17.5102 18.4592C17.5102 19.2031 16.9072 19.8061 16.1633 19.8061H4.04082C3.29692 19.8061 2.69388 19.2031 2.69388 18.4592Z" fill="white"/>
<path d="M7.99335 5.03469H13.4606V6.61061H9.78748V8.45322H13.1212V10.0291H9.78748V11.9445H13.5212V13.5204H7.99335V5.03469Z" fill="white"/>
<path d="M19.3206 11.1929C19.3206 10.9424 19.2156 10.7444 19.0055 10.5989C18.7953 10.4534 18.5327 10.3201 18.2175 10.1989C17.9104 10.0776 17.575 9.95641 17.2113 9.83518C16.8477 9.71396 16.5082 9.55233 16.1931 9.35029C15.886 9.14824 15.6273 8.89367 15.4172 8.58657C15.2071 8.27947 15.102 7.87943 15.102 7.38645C15.102 6.9662 15.1748 6.59849 15.3202 6.28331C15.4738 5.96004 15.6839 5.69739 15.9506 5.49535C16.2254 5.28522 16.5527 5.12763 16.9325 5.02257C17.3204 4.91751 17.7447 4.86498 18.2054 4.86498C18.7388 4.86498 19.2439 4.91347 19.7207 5.01045C20.2056 5.09935 20.6016 5.22865 20.9087 5.39837L20.3389 6.90155C20.242 6.84498 20.1167 6.78841 19.9631 6.73184C19.8177 6.66718 19.648 6.61465 19.454 6.57424C19.26 6.52575 19.054 6.48939 18.8358 6.46514C18.6175 6.43282 18.3953 6.41665 18.169 6.41665C17.7649 6.41665 17.4497 6.48939 17.2235 6.63486C17.0053 6.77224 16.8962 6.9662 16.8962 7.21673C16.8962 7.46727 17.0012 7.66931 17.2113 7.82286C17.4215 7.96833 17.6801 8.10571 17.9872 8.23502C18.3024 8.35624 18.6418 8.48151 19.0055 8.61082C19.3691 8.73204 19.7045 8.89367 20.0116 9.09571C20.3268 9.28967 20.5895 9.53616 20.7996 9.83518C21.0097 10.1342 21.1148 10.5181 21.1148 10.9868C21.1148 11.4556 21.034 11.8596 20.8723 12.1991C20.7107 12.5385 20.4804 12.8213 20.1813 13.0476C19.8904 13.2658 19.5389 13.4275 19.1267 13.5325C18.7145 13.6376 18.262 13.6901 17.769 13.6901C17.4376 13.6901 17.1224 13.6699 16.8234 13.6295C16.5325 13.5972 16.2617 13.5568 16.0112 13.5083C15.7607 13.4517 15.5384 13.3951 15.3445 13.3386C15.1586 13.2739 15.0091 13.2133 14.896 13.1567L15.49 11.6414C15.5789 11.6899 15.7001 11.7424 15.8536 11.799C16.0153 11.8556 16.1931 11.9122 16.387 11.9687C16.581 12.0172 16.7871 12.0576 17.0053 12.09C17.2315 12.1223 17.4578 12.1384 17.6841 12.1384C18.2175 12.1384 18.6216 12.0617 18.8964 11.9081C19.1792 11.7546 19.3206 11.5162 19.3206 11.1929Z" fill="white"/>
<path d="M96.6144 15.3325C96.6144 14.8248 96.424 14.4124 96.0433 14.0951C95.6784 13.7778 95.2104 13.4923 94.6393 13.2384C94.0841 12.9688 93.4733 12.6991 92.807 12.4294C92.1566 12.1438 91.5459 11.8028 90.9747 11.4062C90.4195 10.9937 89.9515 10.4861 89.5708 9.88322C89.2059 9.28039 89.0235 8.51099 89.0235 7.57502C89.0235 6.76596 89.1583 6.06795 89.428 5.48098C89.6977 4.87815 90.0784 4.37844 90.5702 3.98184C91.0779 3.58524 91.6728 3.29175 92.3549 3.10139C93.0371 2.91102 93.7985 2.81584 94.6393 2.81584C95.607 2.81584 96.5192 2.90309 97.3758 3.07759C98.2325 3.23623 98.9384 3.47419 99.4937 3.79147L98.4705 6.528C98.1215 6.3059 97.5979 6.10761 96.8999 5.9331C96.2019 5.74273 95.4484 5.64755 94.6393 5.64755C93.8779 5.64755 93.2909 5.79826 92.8784 6.09967C92.4818 6.40109 92.2835 6.80562 92.2835 7.31326C92.2835 7.78918 92.466 8.18578 92.8308 8.50306C93.2116 8.82034 93.6796 9.11382 94.2348 9.38351C94.8059 9.6532 95.4166 9.93082 96.0671 10.2164C96.7334 10.5019 97.3441 10.8509 97.8994 11.2634C98.4705 11.66 98.9384 12.1597 99.3033 12.7625C99.6841 13.3495 99.8744 14.0872 99.8744 14.9756C99.8744 15.8639 99.7237 16.6333 99.4223 17.2838C99.1367 17.9183 98.7243 18.4498 98.1849 18.8781C97.6614 19.3064 97.0189 19.6237 96.2574 19.8299C95.5118 20.0362 94.6869 20.1393 93.7827 20.1393C92.5929 20.1393 91.5458 20.0282 90.6416 19.8061C89.7374 19.584 89.0711 19.3619 88.6427 19.1398L89.6898 16.3557C89.8643 16.4509 90.0864 16.554 90.356 16.6651C90.6416 16.7761 90.9589 16.8792 91.3079 16.9744C91.6569 17.0696 92.0218 17.1489 92.4025 17.2124C92.7991 17.2758 93.2036 17.3076 93.6161 17.3076C94.5838 17.3076 95.3215 17.1489 95.8291 16.8316C96.3526 16.4985 96.6144 15.9988 96.6144 15.3325Z" fill="#4A86A7"/>
<path d="M111.089 3.14898H114.182V13.9047C114.182 14.9835 114.039 15.9115 113.754 16.6889C113.468 17.4662 113.072 18.1087 112.564 18.6163C112.057 19.124 111.438 19.4968 110.708 19.7347C109.978 19.9727 109.177 20.0917 108.305 20.0917C104.085 20.0917 101.975 18.1642 101.975 14.3093V3.14898H105.235V13.6668C105.235 14.3172 105.291 14.8724 105.402 15.3325C105.528 15.7767 105.719 16.1416 105.973 16.4271C106.227 16.6968 106.544 16.8951 106.925 17.022C107.305 17.133 107.749 17.1886 108.257 17.1886C109.257 17.1886 109.978 16.911 110.423 16.3557C110.867 15.8005 111.089 14.9042 111.089 13.6668V3.14898Z" fill="#4A86A7"/>
<path d="M128.173 7.02772C128.173 7.44018 128.118 7.85264 128.007 8.2651C127.911 8.67756 127.745 9.0583 127.507 9.40731C127.269 9.74045 126.96 10.0419 126.579 10.3116C126.198 10.5654 125.738 10.7557 125.199 10.8827V11.0254C125.675 11.1047 126.127 11.2396 126.555 11.43C126.983 11.6203 127.356 11.8821 127.673 12.2152C127.991 12.5484 128.237 12.9529 128.411 13.4288C128.601 13.9047 128.697 14.4679 128.697 15.1183C128.697 15.975 128.514 16.7206 128.149 17.3551C127.785 17.9738 127.293 18.4815 126.674 18.8781C126.071 19.2747 125.381 19.5682 124.604 19.7585C123.826 19.9489 123.025 20.0441 122.2 20.0441C121.931 20.0441 121.582 20.0441 121.153 20.0441C120.741 20.0441 120.289 20.0282 119.797 19.9965C119.321 19.9806 118.829 19.9489 118.322 19.9013C117.83 19.8537 117.378 19.7823 116.965 19.6871V3.26796C117.267 3.22037 117.608 3.17278 117.989 3.12518C118.385 3.07759 118.805 3.03793 119.25 3.0062C119.694 2.97448 120.146 2.95068 120.606 2.93482C121.082 2.91895 121.55 2.91102 122.01 2.91102C122.787 2.91102 123.541 2.97448 124.271 3.10139C125.016 3.21244 125.675 3.41867 126.246 3.72008C126.833 4.0215 127.301 4.44189 127.65 4.98127C127.999 5.52064 128.173 6.20279 128.173 7.02772ZM122.224 17.3551C122.621 17.3551 123.002 17.3076 123.366 17.2124C123.747 17.1172 124.08 16.9744 124.366 16.784C124.651 16.5778 124.881 16.324 125.056 16.0226C125.23 15.7212 125.318 15.3642 125.318 14.9518C125.318 14.4282 125.215 14.0158 125.008 13.7144C124.802 13.413 124.532 13.1829 124.199 13.0243C123.866 12.8498 123.493 12.7387 123.081 12.6911C122.668 12.6435 122.256 12.6198 121.843 12.6198H120.106V17.2124C120.186 17.2441 120.313 17.2679 120.487 17.2838C120.662 17.2996 120.844 17.3155 121.034 17.3313C121.241 17.3313 121.447 17.3393 121.653 17.3551C121.875 17.3551 122.066 17.3551 122.224 17.3551ZM121.153 10.145C121.375 10.145 121.629 10.137 121.915 10.1212C122.216 10.1053 122.462 10.0815 122.653 10.0498C123.255 9.85943 123.771 9.57388 124.199 9.19314C124.643 8.81241 124.866 8.31269 124.866 7.694C124.866 7.28154 124.786 6.94046 124.628 6.67078C124.469 6.40109 124.255 6.18693 123.985 6.02829C123.731 5.86965 123.438 5.7586 123.105 5.69514C122.771 5.63169 122.422 5.59996 122.058 5.59996C121.645 5.59996 121.264 5.60789 120.915 5.62376C120.566 5.63962 120.297 5.66341 120.106 5.69514V10.145H121.153Z" fill="#4A86A7"/>
<path d="M138.211 15.3325C138.211 14.8248 138.02 14.4124 137.64 14.0951C137.275 13.7778 136.807 13.4923 136.236 13.2384C135.68 12.9688 135.07 12.6991 134.403 12.4294C133.753 12.1438 133.142 11.8028 132.571 11.4062C132.016 10.9937 131.548 10.4861 131.167 9.88322C130.802 9.28039 130.62 8.51099 130.62 7.57502C130.62 6.76596 130.755 6.06795 131.024 5.48098C131.294 4.87815 131.675 4.37844 132.167 3.98184C132.674 3.58524 133.269 3.29175 133.951 3.10139C134.633 2.91102 135.395 2.81584 136.236 2.81584C137.203 2.81584 138.116 2.90309 138.972 3.07759C139.829 3.23623 140.535 3.47419 141.09 3.79147L140.067 6.528C139.718 6.3059 139.194 6.10761 138.496 5.9331C137.798 5.74273 137.045 5.64755 136.236 5.64755C135.474 5.64755 134.887 5.79826 134.475 6.09967C134.078 6.40109 133.88 6.80562 133.88 7.31326C133.88 7.78918 134.062 8.18578 134.427 8.50306C134.808 8.82034 135.276 9.11382 135.831 9.38351C136.402 9.6532 137.013 9.93082 137.663 10.2164C138.33 10.5019 138.941 10.8509 139.496 11.2634C140.067 11.66 140.535 12.1597 140.9 12.7625C141.28 13.3495 141.471 14.0872 141.471 14.9756C141.471 15.8639 141.32 16.6333 141.019 17.2838C140.733 17.9183 140.321 18.4498 139.781 18.8781C139.258 19.3064 138.615 19.6237 137.854 19.8299C137.108 20.0362 136.283 20.1393 135.379 20.1393C134.189 20.1393 133.142 20.0282 132.238 19.8061C131.334 19.584 130.667 19.3619 130.239 19.1398L131.286 16.3557C131.461 16.4509 131.683 16.554 131.952 16.6651C132.238 16.7761 132.555 16.8792 132.904 16.9744C133.253 17.0696 133.618 17.1489 133.999 17.2124C134.395 17.2758 134.8 17.3076 135.212 17.3076C136.18 17.3076 136.918 17.1489 137.425 16.8316C137.949 16.4985 138.211 15.9988 138.211 15.3325Z" fill="#4A86A7"/>
<path d="M35.7751 3.14898H45.6504V6.05208H39.0351V9.93082H45.0555V12.8339H39.0351V16.903H45.7694V19.8061H35.7751V3.14898Z" fill="#ED734B"/>
<path d="M56.4171 16.1178H51.301L50.0398 19.8061H46.7798L52.7763 3.03H55.1797L61.1763 19.8061H57.7497L56.4171 16.1178ZM52.1338 13.5002H55.7032L54.4658 9.78804L53.9661 7.17049H53.8471L53.3474 9.81184L52.1338 13.5002Z" fill="#ED734B"/>
<path d="M69.8016 15.3325C69.8016 14.8248 69.6112 14.4124 69.2305 14.0951C68.8656 13.7778 68.3976 13.4923 67.8265 13.2384C67.2713 12.9688 66.6605 12.6991 65.9942 12.4294C65.3438 12.1438 64.733 11.8028 64.1619 11.4062C63.6067 10.9937 63.1387 10.4861 62.758 9.88322C62.3931 9.28039 62.2107 8.51099 62.2107 7.57502C62.2107 6.76596 62.3455 6.06795 62.6152 5.48098C62.8849 4.87815 63.2656 4.37844 63.7574 3.98184C64.265 3.58524 64.8599 3.29175 65.5421 3.10139C66.2242 2.91102 66.9857 2.81584 67.8265 2.81584C68.7942 2.81584 69.7064 2.90309 70.563 3.07759C71.4197 3.23623 72.1256 3.47419 72.6809 3.79147L71.6576 6.528C71.3086 6.3059 70.7851 6.10761 70.0871 5.9331C69.3891 5.74273 68.6356 5.64755 67.8265 5.64755C67.065 5.64755 66.4781 5.79826 66.0656 6.09967C65.669 6.40109 65.4707 6.80562 65.4707 7.31326C65.4707 7.78918 65.6531 8.18578 66.018 8.50306C66.3987 8.82034 66.8667 9.11382 67.422 9.38351C67.9931 9.6532 68.6038 9.93082 69.2542 10.2164C69.9205 10.5019 70.5313 10.8509 71.0865 11.2634C71.6576 11.66 72.1256 12.1597 72.4905 12.7625C72.8712 13.3495 73.0616 14.0872 73.0616 14.9756C73.0616 15.8639 72.9109 16.6333 72.6095 17.2838C72.3239 17.9183 71.9115 18.4498 71.3721 18.8781C70.8486 19.3064 70.2061 19.6237 69.4446 19.8299C68.699 20.0362 67.8741 20.1393 66.9698 20.1393C65.78 20.1393 64.733 20.0282 63.8288 19.8061C62.9245 19.584 62.2583 19.3619 61.8299 19.1398L62.8769 16.3557C63.0514 16.4509 63.2735 16.554 63.5432 16.6651C63.8288 16.7761 64.1461 16.8792 64.4951 16.9744C64.8441 17.0696 65.2089 17.1489 65.5897 17.2124C65.9863 17.2758 66.3908 17.3076 66.8033 17.3076C67.771 17.3076 68.5087 17.1489 69.0163 16.8316C69.5398 16.4985 69.8016 15.9988 69.8016 15.3325Z" fill="#ED734B"/>
<path d="M79.2312 13.6192L73.7582 3.14898H77.6369L80.6828 9.40731L81.0159 11.1682H81.1349L81.4919 9.35971L84.4426 3.14898H87.9406L82.4913 13.5954V19.8061H79.2312V13.6192Z" fill="#ED734B"/>
</svg>
