<svg width="41" height="35" viewBox="0 0 41 35" fill="none" xmlns="http://www.w3.org/2000/svg">
<path d="M19.9891 0.961426C19.5307 0.961426 19.0689 0.987806 18.6089 1.04281C13.5289 1.63947 9.27502 5.73104 8.49169 10.7694C7.90835 14.511 9.09046 18.1793 11.7371 20.841C12.7738 21.8826 13.3452 23.1863 13.3452 24.5096V24.9946C13.3305 25.0841 13.3305 25.1754 13.3452 25.2648V27.6281C13.3452 31.3048 16.3352 34.2948 20.0119 34.2948C23.6885 34.2948 26.6785 31.3048 26.6785 27.6281V25.2616C26.6932 25.1721 26.6932 25.0808 26.6785 24.9914V24.4998C26.6785 23.1715 27.218 21.8846 28.1597 20.9679C30.428 18.7529 31.6785 15.7914 31.6785 12.6281C31.6785 9.29976 30.2509 6.12398 27.7625 3.91064C25.6209 2.00398 22.8424 0.961426 19.9891 0.961426ZM2.5021 2.61833C2.33612 2.61836 2.17393 2.66795 2.03632 2.76075C1.8987 2.85355 1.79193 2.98533 1.72968 3.13919C1.66744 3.29306 1.65255 3.46201 1.68693 3.62439C1.72132 3.78677 1.80341 3.93519 1.92268 4.05062L5.25601 7.38395C5.3328 7.46393 5.42477 7.52778 5.52655 7.57177C5.62832 7.61575 5.73785 7.63899 5.84871 7.64012C5.95958 7.64125 6.06956 7.62024 6.1722 7.57833C6.27485 7.53643 6.3681 7.47446 6.4465 7.39606C6.5249 7.31766 6.58687 7.22441 6.62878 7.12176C6.67068 7.01911 6.69169 6.90914 6.69056 6.79827C6.68943 6.6874 6.6662 6.57788 6.62221 6.4761C6.57822 6.37433 6.51437 6.28235 6.43439 6.20557L3.10106 2.87223C3.02335 2.79191 2.93028 2.72804 2.82738 2.68442C2.72448 2.64081 2.61386 2.61833 2.5021 2.61833ZM37.4956 2.62158C37.2793 2.6276 37.0739 2.71749 36.9227 2.87223L33.5893 6.20557C33.5094 6.28235 33.4455 6.37433 33.4015 6.4761C33.3576 6.57787 33.3343 6.6874 33.3332 6.79827C33.3321 6.90913 33.3531 7.0191 33.395 7.12175C33.4369 7.2244 33.4989 7.31765 33.5773 7.39604C33.6556 7.47444 33.7489 7.53641 33.8515 7.57832C33.9542 7.62022 34.0642 7.64123 34.175 7.6401C34.2859 7.63898 34.3954 7.61574 34.4972 7.57176C34.599 7.52777 34.6909 7.46393 34.7677 7.38395L38.1011 4.05062C38.2209 3.93347 38.3026 3.78291 38.3356 3.6186C38.3685 3.45429 38.3512 3.28386 38.2858 3.12955C38.2204 2.97525 38.1101 2.84424 37.9691 2.75362C37.8281 2.663 37.6631 2.61699 37.4956 2.62158ZM19.9891 2.62809C22.4574 2.62809 24.8257 3.5258 26.6557 5.15413C28.7891 7.05247 30.0119 9.77643 30.0119 12.6281C30.0119 15.3381 28.9409 17.8749 26.9975 19.7733C25.7852 20.9552 25.0854 22.5937 25.0314 24.2948H14.9891C14.9309 22.6046 14.2135 20.967 12.9188 19.6691C10.6504 17.3874 9.63557 14.2349 10.1356 11.0233C10.8056 6.70994 14.4509 3.20971 18.8042 2.69971C19.1942 2.65304 19.5957 2.62809 19.9891 2.62809ZM0.845202 14.2948C0.734776 14.2932 0.62514 14.3136 0.522666 14.3548C0.420193 14.396 0.326925 14.4571 0.248284 14.5346C0.169642 14.6122 0.107196 14.7046 0.0645724 14.8064C0.0219493 14.9083 0 15.0177 0 15.1281C0 15.2385 0.0219493 15.3479 0.0645724 15.4497C0.107196 15.5516 0.169642 15.644 0.248284 15.7216C0.326925 15.7991 0.420193 15.8602 0.522666 15.9014C0.62514 15.9426 0.734776 15.963 0.845202 15.9614H4.17854C4.28896 15.963 4.3986 15.9426 4.50107 15.9014C4.60354 15.8602 4.69681 15.7991 4.77545 15.7216C4.85409 15.644 4.91654 15.5516 4.95917 15.4497C5.00179 15.3479 5.02374 15.2385 5.02374 15.1281C5.02374 15.0177 5.00179 14.9083 4.95917 14.8064C4.91654 14.7046 4.85409 14.6122 4.77545 14.5346C4.69681 14.4571 4.60354 14.396 4.50107 14.3548C4.3986 14.3136 4.28896 14.2932 4.17854 14.2948H0.845202ZM35.8452 14.2948C35.7348 14.2932 35.6251 14.3136 35.5227 14.3548C35.4202 14.396 35.3269 14.4571 35.2483 14.5346C35.1696 14.6122 35.1072 14.7046 35.0646 14.8064C35.0219 14.9083 35 15.0177 35 15.1281C35 15.2385 35.0219 15.3479 35.0646 15.4497C35.1072 15.5516 35.1696 15.644 35.2483 15.7216C35.3269 15.7991 35.4202 15.8602 35.5227 15.9014C35.6251 15.9426 35.7348 15.963 35.8452 15.9614H39.1785C39.289 15.963 39.3986 15.9426 39.5011 15.9014C39.6035 15.8602 39.6968 15.7991 39.7755 15.7216C39.8541 15.644 39.9165 15.5516 39.9592 15.4497C40.0018 15.3479 40.0237 15.2385 40.0237 15.1281C40.0237 15.0177 40.0018 14.9083 39.9592 14.8064C39.9165 14.7046 39.8541 14.6122 39.7755 14.5346C39.6968 14.4571 39.6035 14.396 39.5011 14.3548C39.3986 14.3136 39.289 14.2932 39.1785 14.2948H35.8452ZM34.1688 20.9517C34.0028 20.9517 33.8406 21.0013 33.703 21.0941C33.5654 21.1869 33.4586 21.3187 33.3963 21.4725C33.3341 21.6264 33.3192 21.7953 33.3536 21.9577C33.388 22.1201 33.4701 22.2685 33.5893 22.384L36.9227 25.7173C36.9995 25.7973 37.0914 25.8611 37.1932 25.9051C37.295 25.9491 37.4045 25.9723 37.5154 25.9734C37.6262 25.9745 37.7362 25.9535 37.8388 25.9116C37.9415 25.8697 38.0347 25.8078 38.1131 25.7294C38.1915 25.651 38.2535 25.5577 38.2954 25.4551C38.3373 25.3524 38.3583 25.2425 38.3572 25.1316C38.3561 25.0207 38.3328 24.9112 38.2889 24.8094C38.2449 24.7077 38.181 24.6157 38.1011 24.5389L34.7677 21.2056C34.69 21.1252 34.5969 21.0614 34.494 21.0178C34.3911 20.9741 34.2805 20.9517 34.1688 20.9517ZM5.82893 20.9549C5.61266 20.9609 5.40721 21.0508 5.25601 21.2056L1.92268 24.5389C1.8427 24.6157 1.77885 24.7077 1.73487 24.8094C1.69089 24.9112 1.66765 25.0207 1.66653 25.1316C1.6654 25.2425 1.6864 25.3524 1.72831 25.4551C1.77022 25.5577 1.83219 25.651 1.91058 25.7294C1.98898 25.8078 2.08223 25.8697 2.18488 25.9116C2.28752 25.9536 2.3975 25.9746 2.50836 25.9734C2.61923 25.9723 2.72875 25.9491 2.83053 25.9051C2.9323 25.8611 3.02427 25.7973 3.10106 25.7173L6.43439 22.384C6.55422 22.2668 6.63595 22.1162 6.66891 21.9519C6.70187 21.7876 6.68453 21.6172 6.61915 21.4629C6.55378 21.3086 6.4434 21.1776 6.30243 21.087C6.16146 20.9963 5.99645 20.9503 5.82893 20.9549ZM15.0119 25.9614H25.0119V27.6281C25.0119 30.3848 22.7685 32.6281 20.0119 32.6281C17.2552 32.6281 15.0119 30.3848 15.0119 27.6281V25.9614Z" fill="#596C71"/>
</svg>
