<svg width="35" height="35" viewBox="0 0 35 35" fill="none" xmlns="http://www.w3.org/2000/svg">
<g clip-path="url(#clip0_293_301)">
<path d="M30.6628 27.837H8.33721C7.31974 27.8363 6.34417 27.4318 5.62471 26.7123C4.90525 25.9928 4.50074 25.0173 4.5 23.9998V10.0463C4.50074 9.02885 4.90525 8.05327 5.62471 7.33382C6.34417 6.61436 7.31974 6.20985 8.33721 6.20911H9.73256C10.0101 6.20911 10.2763 6.31936 10.4726 6.51562C10.6688 6.71188 10.7791 6.97807 10.7791 7.25562C10.7791 7.53317 10.6688 7.79935 10.4726 7.99561C10.2763 8.19187 10.0101 8.30213 9.73256 8.30213H8.33721C7.87485 8.30287 7.43164 8.48687 7.1047 8.81381C6.77776 9.14074 6.59376 9.58396 6.59302 10.0463V23.9998C6.59376 24.4622 6.77776 24.9054 7.1047 25.2323C7.43164 25.5593 7.87485 25.7433 8.33721 25.744H30.6628C31.1252 25.7433 31.5684 25.5593 31.8953 25.2323C32.2222 24.9054 32.4062 24.4622 32.407 23.9998V10.0463C32.4062 9.58396 32.2222 9.14074 31.8953 8.81381C31.5684 8.48687 31.1252 8.30287 30.6628 8.30213H16.7093C16.4317 8.30213 16.1656 8.19187 15.9693 7.99561C15.773 7.79935 15.6628 7.53317 15.6628 7.25562C15.6628 6.97807 15.773 6.71188 15.9693 6.51562C16.1656 6.31936 16.4317 6.20911 16.7093 6.20911H30.6628C31.6803 6.20985 32.6558 6.61436 33.3753 7.33382C34.0947 8.05327 34.4993 9.02885 34.5 10.0463V23.9998C34.4993 25.0173 34.0947 25.9928 33.3753 26.7123C32.6558 27.4318 31.6803 27.8363 30.6628 27.837Z" fill="#232323"/>
<path d="M13.9192 15.2788H11.1285C10.851 15.2788 10.5848 15.1686 10.3885 14.9723C10.1923 14.776 10.082 14.5099 10.082 14.2323C10.082 13.9548 10.1923 13.6886 10.3885 13.4923C10.5848 13.296 10.851 13.1858 11.1285 13.1858H13.9192C14.1968 13.1858 14.463 13.296 14.6592 13.4923C14.8555 13.6886 14.9658 13.9548 14.9658 14.2323C14.9658 14.5099 14.8555 14.776 14.6592 14.9723C14.463 15.1686 14.1968 15.2788 13.9192 15.2788Z" fill="#232323"/>
<path d="M27.8725 15.2788H18.1051C17.8276 15.2788 17.5614 15.1686 17.3651 14.9723C17.1689 14.776 17.0586 14.5099 17.0586 14.2323C17.0586 13.9548 17.1689 13.6886 17.3651 13.4923C17.5614 13.296 17.8276 13.1858 18.1051 13.1858H27.8725C28.1501 13.1858 28.4163 13.296 28.6125 13.4923C28.8088 13.6886 28.9191 13.9548 28.9191 14.2323C28.9191 14.5099 28.8088 14.776 28.6125 14.9723C28.4163 15.1686 28.1501 15.2788 27.8725 15.2788Z" fill="#232323"/>
<path d="M20.896 20.8602H11.1285C10.851 20.8602 10.5848 20.75 10.3885 20.5537C10.1923 20.3575 10.082 20.0913 10.082 19.8137C10.082 19.5362 10.1923 19.27 10.3885 19.0737C10.5848 18.8775 10.851 18.7672 11.1285 18.7672H20.896C21.1735 18.7672 21.4397 18.8775 21.636 19.0737C21.8322 19.27 21.9425 19.5362 21.9425 19.8137C21.9425 20.0913 21.8322 20.3575 21.636 20.5537C21.4397 20.75 21.1735 20.8602 20.896 20.8602Z" fill="#232323"/>
<path d="M27.8724 20.8602H25.0817C24.8041 20.8602 24.5379 20.75 24.3417 20.5537C24.1454 20.3575 24.0352 20.0913 24.0352 19.8137C24.0352 19.5362 24.1454 19.27 24.3417 19.0737C24.5379 18.8775 24.8041 18.7672 25.0817 18.7672H27.8724C28.1499 18.7672 28.4161 18.8775 28.6124 19.0737C28.8086 19.27 28.9189 19.5362 28.9189 19.8137C28.9189 20.0913 28.8086 20.3575 28.6124 20.5537C28.4161 20.75 28.1499 20.8602 27.8724 20.8602Z" fill="#232323"/>
<path d="M13.9184 8.30213H12.5231C12.2455 8.30213 11.9793 8.19187 11.7831 7.99561C11.5868 7.79935 11.4766 7.53317 11.4766 7.25562C11.4766 6.97807 11.5868 6.71188 11.7831 6.51562C11.9793 6.31936 12.2455 6.20911 12.5231 6.20911H13.9184C14.196 6.20911 14.4622 6.31936 14.6584 6.51562C14.8547 6.71188 14.9649 6.97807 14.9649 7.25562C14.9649 7.53317 14.8547 7.79935 14.6584 7.99561C14.4622 8.19187 14.196 8.30213 13.9184 8.30213Z" fill="#232323"/>
</g>
<defs>
<clipPath id="clip0_293_301">
<rect width="34" height="34" fill="white" transform="translate(0.5 0.209106)"/>
</clipPath>
</defs>
</svg>
