<svg width="14" height="15" viewBox="0 0 14 15" fill="none" xmlns="http://www.w3.org/2000/svg">
<path d="M12.5902 3.75679C12.469 3.76041 12.3539 3.81108 12.2694 3.89807L5.13267 11.0348L2.19595 8.09807C2.15295 8.05328 2.10145 8.01753 2.04445 7.99289C1.98746 7.96826 1.92613 7.95525 1.86404 7.95462C1.80195 7.95398 1.74037 7.96575 1.68288 7.98921C1.6254 8.01268 1.57318 8.04738 1.52928 8.09129C1.48537 8.13519 1.45067 8.18741 1.4272 8.2449C1.40373 8.30238 1.39197 8.36397 1.3926 8.42605C1.39323 8.48814 1.40625 8.54947 1.43088 8.60647C1.45551 8.66346 1.49127 8.71497 1.53606 8.75797L4.80272 12.0246C4.89025 12.1121 5.00893 12.1613 5.13267 12.1613C5.25642 12.1613 5.3751 12.1121 5.46262 12.0246L12.9293 4.55797C12.9967 4.49242 13.0428 4.40803 13.0614 4.31585C13.0801 4.22367 13.0704 4.12801 13.0338 4.04141C12.9971 3.9548 12.9352 3.88129 12.856 3.8305C12.7769 3.77971 12.6842 3.75402 12.5902 3.75679Z" fill="black"/>
</svg>
