<svg width="41" height="41" viewBox="0 0 41 41" fill="none" xmlns="http://www.w3.org/2000/svg">
<path d="M17.9351 2.93338C16.9589 2.96253 16.0158 3.47095 15.4784 4.35932L15.2885 4.67432C15.0174 5.12193 14.5397 5.39761 14.0173 5.40838H14.0159L13.6474 5.41682C12.0664 5.44975 10.7785 6.73673 10.7464 8.31792L10.7379 8.68635C10.7271 9.20879 10.4506 9.68749 10.0039 9.95761L9.68885 10.1489C8.33602 10.9678 7.86367 12.7272 8.62573 14.1131H8.62713L8.80432 14.4365C9.05643 14.8942 9.05643 15.4469 8.80432 15.9046L8.62713 16.2267C7.86519 17.6124 8.33655 19.372 9.69026 20.1909L10.0053 20.3807C10.4529 20.6519 10.7285 21.1296 10.7393 21.652V21.6534L10.7478 22.0218C10.7744 23.3007 11.6271 24.3754 12.7868 24.7612L9.04619 32.8668C8.94304 33.0899 8.96075 33.3501 9.09315 33.5571C9.22555 33.7641 9.45437 33.8893 9.7001 33.8892H14.3942L17.0576 37.2192C17.2152 37.416 17.4642 37.5161 17.7142 37.4831C17.9642 37.45 18.1787 37.2885 18.2796 37.0575L20.5226 31.9317L22.7656 37.0575C22.8665 37.2885 23.081 37.45 23.331 37.4831C23.5809 37.5161 23.83 37.416 23.9876 37.2192L26.651 33.8892H31.3451C31.5908 33.8893 31.8197 33.7641 31.9521 33.5571C32.0845 33.3501 32.1022 33.0899 31.999 32.8668L28.2528 24.7486C29.393 24.3519 30.2275 23.2867 30.2539 22.0218V22.0204L30.2623 21.6534V21.652C30.2731 21.1296 30.5496 20.6509 30.9964 20.3807L31.3128 20.1895C32.6656 19.3706 33.1365 17.6126 32.3745 16.2267L32.3731 16.2253L32.1931 15.9004C31.9425 15.4433 31.9429 14.8919 32.1945 14.4351L32.3731 14.1131V14.1117C33.1347 12.7266 32.6637 10.9682 31.3114 10.1489L31.3099 10.1475L30.9949 9.95762C30.5474 9.68664 30.2717 9.2088 30.2609 8.68637V8.68496L30.2524 8.31793V8.31653C30.2195 6.73551 28.9325 5.44761 27.3514 5.41543L26.9829 5.40699C26.4605 5.39622 25.9818 5.1197 25.7117 4.67293L25.5204 4.35793C24.7016 3.00422 22.9419 2.53287 21.5562 3.29481V3.29621L21.2328 3.4734C20.7751 3.7255 20.2223 3.7255 19.7646 3.4734L19.4426 3.29621C19.0962 3.10573 18.7268 2.99214 18.3542 2.95027C18.2144 2.93458 18.0745 2.92922 17.9351 2.93338ZM17.8985 4.36916C18.1833 4.34838 18.4784 4.40863 18.7493 4.5576L19.0699 4.73479C19.9586 5.22428 21.0402 5.22428 21.9288 4.73479L22.2509 4.55619V4.55759C22.9733 4.16033 23.8618 4.39772 24.2885 5.10322L24.4798 5.41822C25.0044 6.28525 25.9388 6.8256 26.952 6.84697L27.3218 6.85541C28.1464 6.87218 28.7971 7.52145 28.8139 8.34603V8.34744L28.8209 8.71587C28.8418 9.72993 29.3825 10.6643 30.2496 11.1895L30.5646 11.3807C31.2697 11.8072 31.5079 12.6947 31.1117 13.417L30.9331 13.7404C30.4436 14.6291 30.4436 15.7092 30.9331 16.5979L30.9345 16.5993V16.6007L31.1131 16.9199C31.5102 17.6422 31.2709 18.5309 30.566 18.9576L30.251 19.1489C29.3831 19.6736 28.8432 20.6084 28.8223 21.6224L28.8153 21.9909V21.9923C28.7985 22.8169 28.1478 23.4661 27.3232 23.4829L26.9534 23.4914C25.9399 23.5127 25.0062 24.052 24.4812 24.9187V24.9201L24.29 25.2351C23.8632 25.9406 22.9748 26.178 22.2523 25.7807V25.7821L21.9303 25.6035C21.0416 25.114 19.96 25.114 19.0714 25.6035L18.7493 25.7821V25.7807C18.0271 26.1779 17.1384 25.94 16.7117 25.2351L16.5204 24.9201C15.9958 24.0531 15.0614 23.5127 14.0482 23.4914H14.0468L13.6784 23.4829C12.8538 23.4661 12.2031 22.8169 12.1864 21.9923V21.9909L12.1793 21.6224C12.1584 20.6084 11.6177 19.6741 10.7506 19.1489L10.4356 18.9576C9.73012 18.5308 9.49128 17.6424 9.88855 16.9199L10.0657 16.5993V16.5979C10.5546 15.7095 10.555 14.6287 10.0657 13.7404L9.88714 13.4184H9.88854C9.49141 12.6961 9.72927 11.8074 10.4342 11.3807L10.7492 11.1895C11.6162 10.6649 12.1566 9.73045 12.1779 8.7173V8.7159L12.1864 8.34746C12.2031 7.52288 12.8524 6.87221 13.677 6.85542H13.6784L14.0468 6.84839C15.0609 6.82748 15.9952 6.28675 16.5204 5.41964L16.7117 5.10464C16.925 4.7519 17.2529 4.51495 17.6187 4.41698C17.7102 4.39249 17.8036 4.37609 17.8985 4.36916ZM25.744 10.191L19.811 19.4653L15.0424 15.1734L14.0778 16.2449L20.1092 21.6717L26.9562 10.9673L25.744 10.191ZM26.7649 24.9637L30.2187 32.4492H26.3051C26.0863 32.449 25.8793 32.5484 25.7426 32.7192L23.6065 35.3882L21.3087 30.1331L22.5209 27.3627C23.6781 27.5435 24.8845 27.0339 25.5218 25.9804L25.7131 25.6654C25.9452 25.2822 26.3316 25.0365 26.7649 24.9637ZM14.2774 24.9693C14.6944 25.0512 15.0645 25.2949 15.2885 25.6654L15.4798 25.9804C16.2987 27.3333 18.0581 27.8056 19.444 27.0435V27.0421L19.7674 26.8649C20.2068 26.623 20.7316 26.6199 21.1779 26.8424L17.4387 35.3882L15.3026 32.7192C15.1658 32.5484 14.9589 32.449 14.7401 32.4492H10.8265L14.2774 24.9693Z" fill="black"/>
</svg>
