<svg width="40" height="30" viewBox="0 0 40 30" fill="none" xmlns="http://www.w3.org/2000/svg">
<path d="M34.8837 29.6272H5.11628C3.75966 29.6262 2.45889 29.09 1.49961 28.1365C0.540337 27.1829 0.000985557 25.8899 0 24.5413V6.04728C0.000985557 4.69873 0.540337 3.40569 1.49961 2.45212C2.45889 1.49855 3.75966 0.962405 5.11628 0.961426H6.97674C7.34681 0.961426 7.70173 1.10756 7.96341 1.36768C8.22508 1.62781 8.37209 1.98061 8.37209 2.34848C8.37209 2.71635 8.22508 3.06915 7.96341 3.32927C7.70173 3.58939 7.34681 3.73553 6.97674 3.73553H5.11628C4.4998 3.73651 3.90885 3.98038 3.47293 4.41371C3.03701 4.84703 2.79168 5.43447 2.7907 6.04728V24.5413C2.79168 25.1541 3.03701 25.7416 3.47293 26.1749C3.90885 26.6082 4.4998 26.8521 5.11628 26.8531H34.8837C35.5002 26.8521 36.0912 26.6082 36.5271 26.1749C36.963 25.7416 37.2083 25.1541 37.2093 24.5413V6.04728C37.2083 5.43447 36.963 4.84703 36.5271 4.41371C36.0912 3.98038 35.5002 3.73651 34.8837 3.73553H16.2791C15.909 3.73553 15.5541 3.58939 15.2924 3.32927C15.0307 3.06915 14.8837 2.71635 14.8837 2.34848C14.8837 1.98061 15.0307 1.62781 15.2924 1.36768C15.5541 1.10756 15.909 0.961426 16.2791 0.961426H34.8837C36.2403 0.962405 37.5411 1.49855 38.5004 2.45212C39.4597 3.40569 39.999 4.69873 40 6.04728V24.5413C39.999 25.8899 39.4597 27.1829 38.5004 28.1365C37.5411 29.09 36.2403 29.6262 34.8837 29.6272Z" fill="#232323" fill-opacity="0.5"/>
<path d="M12.5577 12.9826H8.83676C8.46669 12.9826 8.11177 12.8365 7.85009 12.5763C7.58842 12.3162 7.44141 11.9634 7.44141 11.5955C7.44141 11.2277 7.58842 10.8749 7.85009 10.6148C8.11177 10.3546 8.46669 10.2085 8.83676 10.2085H12.5577C12.9278 10.2085 13.2827 10.3546 13.5443 10.6148C13.806 10.8749 13.953 11.2277 13.953 11.5955C13.953 11.9634 13.806 12.3162 13.5443 12.5763C13.2827 12.8365 12.9278 12.9826 12.5577 12.9826Z" fill="#232323" fill-opacity="0.5"/>
<path d="M31.1627 12.9826H18.1395C17.7694 12.9826 17.4145 12.8365 17.1528 12.5763C16.8912 12.3162 16.7441 11.9634 16.7441 11.5955C16.7441 11.2277 16.8912 10.8749 17.1528 10.6148C17.4145 10.3546 17.7694 10.2085 18.1395 10.2085H31.1627C31.5328 10.2085 31.8877 10.3546 32.1494 10.6148C32.4111 10.8749 32.5581 11.2277 32.5581 11.5955C32.5581 11.9634 32.4111 12.3162 32.1494 12.5763C31.8877 12.8365 31.5328 12.9826 31.1627 12.9826Z" fill="#232323" fill-opacity="0.5"/>
<path d="M21.86 20.3801H8.83676C8.46669 20.3801 8.11177 20.2339 7.85009 19.9738C7.58842 19.7137 7.44141 19.3609 7.44141 18.993C7.44141 18.6251 7.58842 18.2723 7.85009 18.0122C8.11177 17.7521 8.46669 17.606 8.83676 17.606H21.86C22.2301 17.606 22.585 17.7521 22.8467 18.0122C23.1083 18.2723 23.2554 18.6251 23.2554 18.993C23.2554 19.3609 23.1083 19.7137 22.8467 19.9738C22.585 20.2339 22.2301 20.3801 21.86 20.3801Z" fill="#232323" fill-opacity="0.5"/>
<path d="M31.1632 20.3801H27.4422C27.0722 20.3801 26.7172 20.2339 26.4556 19.9738C26.1939 19.7137 26.0469 19.3609 26.0469 18.993C26.0469 18.6251 26.1939 18.2723 26.4556 18.0122C26.7172 17.7521 27.0722 17.606 27.4422 17.606H31.1632C31.5332 17.606 31.8881 17.7521 32.1498 18.0122C32.4115 18.2723 32.5585 18.6251 32.5585 18.993C32.5585 19.3609 32.4115 19.7137 32.1498 19.9738C31.8881 20.2339 31.5332 20.3801 31.1632 20.3801Z" fill="#232323" fill-opacity="0.5"/>
<path d="M12.5585 3.73553H10.6981C10.328 3.73553 9.9731 3.58939 9.71142 3.32927C9.44974 3.06915 9.30273 2.71635 9.30273 2.34848C9.30273 1.98061 9.44974 1.62781 9.71142 1.36768C9.9731 1.10756 10.328 0.961426 10.6981 0.961426H12.5585C12.9286 0.961426 13.2835 1.10756 13.5452 1.36768C13.8069 1.62781 13.9539 1.98061 13.9539 2.34848C13.9539 2.71635 13.8069 3.06915 13.5452 3.32927C13.2835 3.58939 12.9286 3.73553 12.5585 3.73553Z" fill="#232323" fill-opacity="0.5"/>
</svg>
