<svg width="13" height="13" viewBox="0 0 13 13" fill="none" xmlns="http://www.w3.org/2000/svg">
<path d="M6.14062 0.5C2.83224 0.5 0.140625 3.19162 0.140625 6.5C0.140625 9.80838 2.83224 12.5 6.14062 12.5C9.44901 12.5 12.1406 9.80838 12.1406 6.5C12.1406 3.19162 9.44901 0.5 6.14062 0.5ZM6.14062 1.4C6.36038 1.4 6.58354 1.49147 6.82852 1.71699C7.07349 1.94251 7.32197 2.30075 7.53457 2.76348C7.70557 3.13566 7.83169 3.61288 7.94707 4.1H4.33418C4.44956 3.61288 4.57568 3.13566 4.74668 2.76348C4.95928 2.30075 5.20776 1.94251 5.45273 1.71699C5.69771 1.49147 5.92087 1.4 6.14062 1.4ZM4.27383 1.75625C4.14976 1.95121 4.03348 2.15986 3.92871 2.38789C3.70041 2.88479 3.5291 3.47295 3.39609 4.1H1.63945C2.20685 3.03558 3.14073 2.20114 4.27383 1.75625ZM8.00742 1.75625C9.14052 2.20114 10.0744 3.03558 10.6418 4.1H8.88516C8.75215 3.47295 8.58084 2.88479 8.35254 2.38789C8.24777 2.15986 8.13149 1.95121 8.00742 1.75625ZM1.26504 5H3.27891C3.21725 5.48967 3.14062 5.96955 3.14062 6.5C3.14062 7.03045 3.21725 7.51033 3.27891 8H1.26504C1.11992 7.5259 1.04063 7.02238 1.04063 6.5C1.04063 5.97763 1.11992 5.4741 1.26504 5ZM4.18066 5H8.10059C8.16749 5.48402 8.24063 5.96619 8.24063 6.5C8.24063 7.03381 8.16749 7.51598 8.10059 8H4.18066C4.11376 7.51598 4.04063 7.03381 4.04063 6.5C4.04063 5.96619 4.11376 5.48402 4.18066 5ZM9.00234 5H11.0162C11.1613 5.4741 11.2406 5.97763 11.2406 6.5C11.2406 7.02238 11.1613 7.5259 11.0162 8H9.00234C9.064 7.51033 9.14062 7.03045 9.14062 6.5C9.14062 5.96955 9.064 5.48967 9.00234 5ZM1.63945 8.9H3.39609C3.5291 9.52705 3.70041 10.1152 3.92871 10.6121C4.03348 10.8401 4.14976 11.0488 4.27383 11.2438C3.14073 10.7989 2.20685 9.96442 1.63945 8.9ZM4.33418 8.9H7.94707C7.83169 9.38712 7.70557 9.86434 7.53457 10.2365C7.32197 10.6992 7.07349 11.0575 6.82852 11.283C6.58354 11.5085 6.36038 11.6 6.14062 11.6C5.92087 11.6 5.69771 11.5085 5.45273 11.283C5.20776 11.0575 4.95928 10.6992 4.74668 10.2365C4.57568 9.86434 4.44956 9.38712 4.33418 8.9ZM8.88516 8.9H10.6418C10.0744 9.96442 9.14052 10.7989 8.00742 11.2438C8.13149 11.0488 8.24777 10.8401 8.35254 10.6121C8.58084 10.1152 8.75215 9.52705 8.88516 8.9Z" fill="black"/>
</svg>
