<svg width="40" height="41" viewBox="0 0 40 41" fill="none" xmlns="http://www.w3.org/2000/svg">
<path d="M19.9996 2.56152C9.88711 2.56152 1.59961 10.049 1.59961 19.3615C1.59961 23.3209 3.12461 26.949 5.62461 29.8115H5.59961C5.91211 30.3365 5.95273 30.9615 5.77461 31.7365C5.59648 32.5115 5.19648 33.3834 4.72461 34.1865C4.25273 34.9897 3.72461 35.7147 3.29961 36.2865C3.08711 36.5709 2.89336 36.8115 2.74961 37.0115C2.67773 37.1115 2.63086 37.2147 2.57461 37.3115C2.51836 37.4084 2.39961 37.4022 2.39961 37.8365C2.39961 38.1678 2.53086 38.574 2.84961 38.8865C3.16836 39.199 3.62773 39.3615 4.14961 39.3615C7.83711 39.3615 11.1934 36.6209 13.7496 35.1115C15.709 35.7615 17.7996 36.1615 19.9996 36.1615C30.1121 36.1615 38.3996 28.674 38.3996 19.3615C38.3996 10.049 30.1121 2.56152 19.9996 2.56152ZM19.9996 4.16152C29.3277 4.16152 36.7996 10.999 36.7996 19.3615C36.7996 27.724 29.3277 34.5615 19.9996 34.5615C17.8371 34.5615 15.7715 34.1834 13.8746 33.5115L13.5246 33.3865L13.2246 33.5865C10.4496 35.174 7.10898 37.7334 4.19961 37.7615C4.30898 37.6115 4.41523 37.474 4.57461 37.2615C5.00898 36.6772 5.57773 35.874 6.09961 34.9865C6.62149 34.099 7.11523 33.1147 7.34961 32.0865C7.58399 31.0584 7.55586 29.9584 6.97461 28.9865L6.92461 28.9115L6.89961 28.8615C4.58711 26.249 3.19961 22.9553 3.19961 19.3615C3.19961 10.999 10.6715 4.16152 19.9996 4.16152ZM13.0746 10.5615C12.7809 10.6146 12.5371 10.8271 12.4496 11.1115L10.0246 18.1115C9.93086 18.2428 9.87774 18.399 9.87461 18.5615L8.84961 21.5115C8.70586 21.7928 8.74023 22.1303 8.93711 22.3771C9.13399 22.624 9.45586 22.7303 9.76211 22.6522C10.0652 22.574 10.2965 22.324 10.3496 22.0115L11.2746 19.3615H15.1246L16.0496 22.0115C16.1027 22.324 16.334 22.574 16.6371 22.6522C16.9434 22.7303 17.2652 22.624 17.4621 22.3771C17.659 22.1303 17.6934 21.7928 17.5496 21.5115L13.9496 11.1115C13.8309 10.7396 13.4621 10.5053 13.0746 10.5615ZM13.1996 13.7865L14.5746 17.7615H11.8246L13.1996 13.7865ZM26.3246 16.1365C26.2902 16.1428 26.2559 16.1521 26.2246 16.1615C25.8527 16.2459 25.5902 16.5803 25.5996 16.9615V18.5615H21.5996C21.5746 18.5615 21.5496 18.5615 21.5246 18.5615C21.4996 18.5615 21.4746 18.5615 21.4496 18.5615C21.009 18.6021 20.684 18.9959 20.7246 19.4365C20.7652 19.8771 21.159 20.2022 21.5996 20.1615H28.5746C28.259 21.2084 27.534 22.9897 25.9246 24.6115C24.5621 23.2678 23.9496 22.1365 23.9496 22.1365C23.7965 21.8428 23.4777 21.674 23.1496 21.7115C22.8809 21.7428 22.6465 21.9053 22.5246 22.149C22.4027 22.3897 22.4121 22.6772 22.5496 22.9115C22.5496 22.9115 23.2402 24.1584 24.6996 25.6365C23.7902 26.3178 22.6996 26.949 21.3496 27.4115C21.0371 27.4647 20.7871 27.6959 20.709 27.999C20.6309 28.3053 20.7371 28.6272 20.984 28.824C21.2309 29.0209 21.5684 29.0553 21.8496 28.9115C23.4809 28.3521 24.7965 27.5709 25.8746 26.7115C26.7965 27.4803 27.8965 28.2397 29.2496 28.8865C29.6496 29.0803 30.1309 28.9115 30.3246 28.5115C30.5184 28.1115 30.3496 27.6303 29.9496 27.4365C28.8121 26.8928 27.8684 26.2709 27.0746 25.6365C29.1277 23.5209 29.9277 21.2459 30.2246 20.1615H31.1996C31.4871 20.1646 31.7559 20.0147 31.9027 19.7647C32.0465 19.5147 32.0465 19.2084 31.9027 18.9584C31.7559 18.7084 31.4871 18.5584 31.1996 18.5615H27.1996V16.9615C27.209 16.7303 27.1152 16.5084 26.9496 16.3521C26.7809 16.1928 26.5527 16.1146 26.3246 16.1365Z" fill="black" fill-opacity="0.5"/>
</svg>
