<svg width="18" height="19" viewBox="0 0 18 19" fill="none" xmlns="http://www.w3.org/2000/svg">
<path d="M8.09119 10.2224C8.05969 10.1155 7.99782 10.0205 7.91288 9.94901C7.09332 9.2622 5.85469 9.15308 5.09588 9.14633C5.214 7.8942 5.72307 6.66458 6.64275 5.40514C6.76538 5.23695 6.78507 5.01533 6.6945 4.82801C6.42844 4.2807 5.79 3.61189 4.863 3.52864C4.68638 3.51514 4.51875 3.5787 4.40063 3.70583C1.25569 7.08533 0.369755 10.8884 1.767 15.0104C1.81538 15.1533 1.92 15.2714 2.05669 15.3366C2.84363 15.7146 3.78357 15.902 4.7325 15.902C5.76469 15.902 6.80813 15.6798 7.67607 15.2388C7.80432 15.1735 7.90275 15.0616 7.95113 14.926C8.46469 13.4855 8.66775 12.1962 8.09119 10.2224ZM16.5287 10.2224C16.4972 10.1155 16.4353 10.0205 16.3504 9.94901C15.5308 9.2622 14.2922 9.15308 13.5334 9.14633C13.6515 7.8942 14.1606 6.66458 15.0803 5.40514C15.2029 5.23695 15.2226 5.01533 15.132 4.82801C14.8659 4.2807 14.2275 3.61189 13.3005 3.52864C13.1261 3.51514 12.9568 3.5787 12.8387 3.70583C9.69375 7.08533 8.80782 10.8884 10.2051 15.0104C10.2534 15.1533 10.3581 15.2714 10.4948 15.3366C11.2817 15.7146 12.2216 15.902 13.1706 15.902C14.2028 15.902 15.2462 15.6798 16.1141 15.2388C16.2424 15.1735 16.3408 15.0616 16.3892 14.926C16.9022 13.4855 17.1053 12.1962 16.5287 10.2224Z" fill="#4A86A7"/>
</svg>
