<svg width="35" height="35" viewBox="0 0 35 35" fill="none" xmlns="http://www.w3.org/2000/svg">
<path d="M17.4994 1.56909C8.90375 1.56909 1.85938 7.93347 1.85938 15.8491C1.85938 19.2146 3.15563 22.2985 5.28063 24.7316H5.25938C5.525 25.1778 5.55953 25.7091 5.40812 26.3678C5.25672 27.0266 4.91672 27.7677 4.51562 28.4503C4.11453 29.133 3.66563 29.7492 3.30438 30.2353C3.12375 30.4771 2.95906 30.6816 2.83688 30.8516C2.77578 30.9366 2.73594 31.0242 2.68813 31.1066C2.64031 31.1889 2.53938 31.1836 2.53938 31.5528C2.53938 31.8344 2.65094 32.1797 2.92188 32.4453C3.19281 32.711 3.58328 32.8491 4.02688 32.8491C7.16125 32.8491 10.0141 30.5196 12.1869 29.2366C13.8523 29.7891 15.6294 30.1291 17.4994 30.1291C26.095 30.1291 33.1394 23.7647 33.1394 15.8491C33.1394 7.93347 26.095 1.56909 17.4994 1.56909ZM17.4994 2.92909C25.4283 2.92909 31.7794 8.74097 31.7794 15.8491C31.7794 22.9572 25.4283 28.7691 17.4994 28.7691C15.6613 28.7691 13.9055 28.4477 12.2931 27.8766L11.9956 27.7703L11.7406 27.9403C9.38188 29.2897 6.54234 31.4652 4.06938 31.4891C4.16234 31.3616 4.25266 31.2447 4.38812 31.0641C4.75734 30.5674 5.24078 29.8847 5.68438 29.1303C6.12797 28.376 6.54766 27.5392 6.74688 26.6653C6.94609 25.7914 6.92219 24.8564 6.42812 24.0303L6.38562 23.9666L6.36438 23.9241C4.39875 21.7035 3.21938 18.9038 3.21938 15.8491C3.21938 8.74097 9.57047 2.92909 17.4994 2.92909ZM11.6131 8.36909C11.3634 8.41425 11.1562 8.59487 11.0819 8.83659L9.02063 14.7866C8.94094 14.8982 8.89578 15.031 8.89313 15.1691L8.02187 17.6766C7.89969 17.9157 7.92891 18.2025 8.09625 18.4124C8.26359 18.6222 8.53719 18.7125 8.7975 18.6461C9.05516 18.5797 9.25172 18.3672 9.29688 18.1016L10.0831 15.8491H13.3556L14.1419 18.1016C14.187 18.3672 14.3836 18.5797 14.6413 18.6461C14.9016 18.7125 15.1752 18.6222 15.3425 18.4124C15.5098 18.2025 15.5391 17.9157 15.4169 17.6766L12.3569 8.83659C12.2559 8.5205 11.9425 8.32128 11.6131 8.36909ZM11.7194 11.1103L12.8881 14.4891H10.5506L11.7194 11.1103ZM22.8756 13.1078C22.8464 13.1132 22.8172 13.1211 22.7906 13.1291C22.4745 13.2008 22.2514 13.485 22.2594 13.8091V15.1691H18.8594C18.8381 15.1691 18.8169 15.1691 18.7956 15.1691C18.7744 15.1691 18.7531 15.1691 18.7319 15.1691C18.3573 15.2036 18.0811 15.5383 18.1156 15.9128C18.1502 16.2874 18.4848 16.5636 18.8594 16.5291H24.7881C24.5198 17.4189 23.9036 18.933 22.5356 20.3116C21.3775 19.1694 20.8569 18.2078 20.8569 18.2078C20.7267 17.9582 20.4558 17.8147 20.1769 17.8466C19.9484 17.8732 19.7492 18.0113 19.6456 18.2185C19.542 18.423 19.55 18.6674 19.6669 18.8666C19.6669 18.8666 20.2539 19.9264 21.4944 21.1828C20.7214 21.7619 19.7944 22.2985 18.6469 22.6916C18.3813 22.7367 18.1688 22.9333 18.1023 23.191C18.0359 23.4513 18.1262 23.7249 18.3361 23.8922C18.5459 24.0596 18.8328 24.0888 19.0719 23.9666C20.4584 23.4911 21.5767 22.8271 22.4931 22.0966C23.2767 22.75 24.2117 23.3955 25.3619 23.9453C25.7019 24.11 26.1109 23.9666 26.2756 23.6266C26.4403 23.2866 26.2969 22.8775 25.9569 22.7128C24.99 22.2507 24.1878 21.7221 23.5131 21.1828C25.2583 19.3846 25.9383 17.4508 26.1906 16.5291H27.0194C27.2638 16.5317 27.4922 16.4042 27.617 16.1917C27.7392 15.9792 27.7392 15.7189 27.617 15.5064C27.4922 15.2939 27.2638 15.1664 27.0194 15.1691H23.6194V13.8091C23.6273 13.6125 23.5477 13.4239 23.4069 13.2911C23.2634 13.1557 23.0695 13.0892 22.8756 13.1078Z" fill="black"/>
</svg>
