<svg width="7" height="5" viewBox="0 0 7 5" fill="none" xmlns="http://www.w3.org/2000/svg">
<path d="M6.931 0.912371C6.97682 0.95819 6.99973 1.01088 6.99973 1.07045C6.99973 1.13001 6.97682 1.1827 6.931 1.22852L3.72825 4.43127C3.68244 4.47709 3.62974 4.5 3.57018 4.5C3.51061 4.5 3.45792 4.47709 3.4121 4.43127L0.209353 1.22852C0.163534 1.1827 0.140625 1.13001 0.140625 1.07045C0.140625 1.01088 0.163534 0.95819 0.209353 0.912371L0.552996 0.568728C0.598815 0.522909 0.651507 0.5 0.711072 0.5C0.770636 0.5 0.823328 0.522909 0.869147 0.568728L3.57018 3.26976L6.27121 0.568728C6.31703 0.522909 6.36972 0.5 6.42929 0.5C6.48885 0.5 6.54154 0.522909 6.58736 0.568728L6.931 0.912371Z" fill="black"/>
</svg>
