<svg width="50" height="50" viewBox="0 0 50 50" fill="none" xmlns="http://www.w3.org/2000/svg">
<rect x="1" y="1" width="48" height="48" rx="5" fill="white" fill-opacity="0.5" stroke="black" stroke-opacity="0.37" stroke-width="0.5"/>
<path d="M40.5525 33.8319C40.2242 35.5599 38.8288 36.8765 37.1051 37.1233C34.3965 37.5348 29.882 38.0285 24.7931 38.0285C19.7861 38.0285 15.2717 37.5348 12.481 37.1233C10.7573 36.8765 9.36192 35.5599 9.0336 33.8319C8.70528 31.9393 8.37695 29.1416 8.37695 25.6856C8.37695 22.2296 8.70528 19.4319 9.0336 17.5393C9.36192 15.8113 10.7573 14.4948 12.481 14.2479C15.1896 13.8365 19.7041 13.3428 24.7931 13.3428C29.882 13.3428 34.3144 13.8365 37.1051 14.2479C38.8288 14.4948 40.2242 15.8113 40.5525 17.5393C40.8808 19.4319 41.2912 22.2296 41.2912 25.6856C41.2092 29.1416 40.8808 31.9393 40.5525 33.8319Z" fill="#FF3D00"/>
<path d="M22.0918 31.1714V20.2L31.6918 25.6857L22.0918 31.1714Z" fill="white"/>
</svg>
