<svg width="50" height="50" viewBox="0 0 50 50" fill="none" xmlns="http://www.w3.org/2000/svg">
<rect x="1" y="1" width="48" height="48" rx="5" fill="white" fill-opacity="0.5" stroke="black" stroke-opacity="0.37" stroke-width="0.5"/>
<path opacity="0.05" d="M23.4365 30.5464L27.4797 40.6564C27.6812 41.1593 28.1617 41.4845 28.7028 41.4845C31.1437 41.4845 33.6373 42.1007 33.661 42.1072C34.0981 42.2126 34.6392 42.0598 34.9578 41.6965C35.2185 41.3989 35.2844 40.9078 35.2857 40.8236V10.5451C35.2857 9.81966 34.6945 9.22852 33.9691 9.22852H28.7028C27.9774 9.22852 27.3862 9.81966 27.3862 10.5451V20.3904L23.3457 10.0659C23.1469 9.55766 22.6663 9.22852 22.12 9.22852H16.8537C16.4166 9.22852 16.0098 9.44443 15.7636 9.80517C15.6582 9.96053 15.5806 10.1909 15.5437 10.4529L15.5371 40.8262C15.5371 41.2357 15.7214 41.6135 16.044 41.865C16.3613 42.1125 16.7905 42.202 17.1762 42.1033C17.1973 42.0967 19.6962 41.4845 22.12 41.4845C22.8454 41.4845 23.4365 40.8934 23.4365 40.1679V30.5464Z" fill="black"/>
<path d="M16.8536 41.4847C16.7088 41.4847 16.5653 41.436 16.4481 41.3451C16.2888 41.22 16.1953 41.0291 16.1953 40.8264V10.5452C16.1953 10.1819 16.4902 9.88696 16.8536 9.88696H22.1199C22.4833 9.88696 22.7782 10.1819 22.7782 10.5452V40.1681C22.7782 40.5315 22.4833 40.8264 22.1199 40.8264C19.596 40.8264 17.0392 41.4583 17.0129 41.4649C16.9602 41.4781 16.9076 41.4847 16.8536 41.4847Z" fill="#B71C1C"/>
<path d="M33.9695 41.4847C33.9155 41.4847 33.8628 41.4781 33.8102 41.4649C31.2916 40.8356 28.7282 40.8264 28.7032 40.8264C28.3398 40.8264 28.0449 40.5315 28.0449 40.1681V10.5452C28.0449 10.1819 28.3398 9.88696 28.7032 9.88696H33.9695C34.3329 9.88696 34.6278 10.1819 34.6278 10.5452V40.8264C34.6278 41.0291 34.5343 41.22 34.375 41.3451C34.2578 41.436 34.1143 41.4847 33.9695 41.4847Z" fill="#B71C1C"/>
<path opacity="0.05" d="M28.0449 20.2615V40.2865L28.0976 40.4182C28.1897 40.6683 28.4399 40.8263 28.7032 40.8263C31.2179 40.8263 33.7852 41.4583 33.8115 41.4714C33.8642 41.4846 33.9168 41.4846 33.9695 41.4846C34.1538 41.4846 34.3381 41.4056 34.4698 41.2608C34.5751 41.1423 34.6014 40.9843 34.6014 40.8395C34.6146 40.8263 34.6278 40.8263 34.6278 40.8263V37.0873L28.0449 20.2615Z" fill="black"/>
<path opacity="0.05" d="M22.7782 27.134V10.4096L22.7387 10.3083C22.6333 10.0581 22.3964 9.88696 22.1199 9.88696H16.8536C16.6298 9.88696 16.4323 9.99229 16.3138 10.1766C16.2348 10.2819 16.2085 10.4136 16.2085 10.5321C16.2085 10.5321 16.1953 10.5321 16.1953 10.5452V14.2185L22.7782 30.6756V27.134Z" fill="black"/>
<path opacity="0.05" d="M34.6278 38.8934L28.0449 22.0676V40.1718C28.0541 40.1718 28.7269 40.1718 28.7348 40.1718C30.944 40.1718 33.3415 40.6629 33.9655 40.8367L33.9669 40.8314L34.6278 41.075V38.8934Z" fill="black"/>
<path opacity="0.05" d="M22.7782 10.6492L16.1953 10.6084V12.4463L22.7782 28.9035V10.6492Z" fill="black"/>
<path d="M33.9687 41.4847C33.9147 41.4847 33.862 41.4781 33.8093 41.4649C33.783 41.4583 31.2197 40.8264 28.7024 40.8264C28.4325 40.8264 28.1915 40.6618 28.0915 40.413L16.2423 10.7901C16.1607 10.5874 16.187 10.357 16.3082 10.1766C16.4306 9.99624 16.6347 9.88696 16.8532 9.88696H22.1195C22.3907 9.88696 22.6343 10.0529 22.733 10.3056L34.5822 40.5868C34.6717 40.8159 34.6256 41.0765 34.4637 41.2609C34.336 41.4044 34.1556 41.4847 33.9687 41.4847Z" fill="#E50914"/>
</svg>
