<svg width="50" height="50" viewBox="0 0 50 50" fill="none" xmlns="http://www.w3.org/2000/svg">
<rect x="1" y="1" width="48" height="48" rx="5" fill="white" fill-opacity="0.5" stroke="black" stroke-opacity="0.37" stroke-width="0.5"/>
<path d="M42.1068 25.2097L42.1055 25.1991L42.1068 25.2149V25.2097Z" fill="black"/>
<path d="M17.8233 34.246C17.9851 34.2529 18.1456 34.257 18.3074 34.257C19.7405 34.257 21.0653 33.9964 22.2544 33.4766C22.552 33.3464 22.84 33.1955 23.1348 33.0268C23.2953 32.9336 23.4475 32.8321 23.5984 32.7265L23.7081 32.6497L23.896 32.5194C24.1209 32.3548 24.3307 32.1752 24.5364 31.9873L24.6077 31.9173C24.7284 31.8008 24.8491 31.6828 24.9629 31.5608L25.3894 31.0684L25.5513 30.8613L25.6281 30.7475L25.7035 30.6364C26.3371 29.5516 28.3984 25.6005 28.3984 25.6005V25.5923L28.5218 25.3523L28.6233 25.163C28.9277 24.5994 29.1472 24.1989 29.4379 23.7793L29.4461 23.7656C30.1222 22.763 31.2893 22.0499 32.6635 21.9292C34.9675 21.7262 36.9862 23.2705 37.1714 25.3756C37.3565 27.4835 35.6395 29.3555 33.3341 29.5585C33.2148 29.5694 33.0749 29.5749 32.9337 29.5749C32.584 29.5749 32.2438 29.5352 31.9161 29.4611L31.9476 29.4666L31.9353 29.4707C30.2457 29.1114 29.1691 27.8552 28.6384 27.2915L26.4208 31.4497C26.4208 31.4497 27.1106 32.1573 27.5824 32.5112C28.0569 32.865 28.6672 33.212 29.154 33.4286C30.3005 33.9484 31.639 34.2515 33.0461 34.2529C33.2121 34.2529 33.1792 34.2529 33.3506 34.246C35.8795 34.1377 38.1341 33.1502 39.7606 31.4565C41.3008 29.8478 42.1373 28.0129 42.1442 25.8378V25.772L42.1291 25.4126V25.414C42.1236 25.2673 42.1154 25.1342 42.1017 25.0026C41.9714 23.5379 41.4886 22.209 40.7426 21.0776C40.386 20.5345 39.9952 20.0586 39.5604 19.6334L39.5577 19.6307C38.9145 19.004 38.1725 18.476 37.3593 18.0728L37.3085 18.0508C36.1085 17.4611 34.6987 17.1169 33.2107 17.1169C33.1819 17.1169 33.1531 17.1169 33.1243 17.1169H33.1202C33.1092 17.1169 33.0969 17.1169 33.0832 17.1169C31.8681 17.1169 30.7051 17.339 29.6272 17.7409C28.6768 18.0851 27.8539 18.5528 27.1257 19.1397C26.9611 19.2769 26.8144 19.4072 26.6731 19.5416L26.6786 19.5374L26.562 19.6568L26.4002 19.8296H26.4016L26.3248 19.9064L26.2891 19.9461L26.0971 20.1518C25.9545 20.315 25.8201 20.4796 25.6912 20.6401V20.6373L25.6857 20.6318C25.4224 20.9582 25.1782 21.297 25 21.6014C24.8779 21.7976 24.7586 21.9978 24.6448 22.198L23.0717 25.4414L23.0745 25.4428L22.9922 25.6074L22.8194 25.9653C22.4752 26.6771 22.1049 27.3875 21.6934 27.9717C20.7718 29.0017 19.7309 29.5077 18.3938 29.5077C18.3005 29.5077 18.2032 29.5036 18.1072 29.4968C17.3008 29.4652 16.6096 29.2705 15.9965 28.9002C15.4164 28.556 14.9515 28.0664 14.6429 27.4794L14.6333 27.4602C14.3508 26.9445 14.1835 26.3274 14.1835 25.6718C14.1835 25.6266 14.1849 25.5827 14.1862 25.5388V25.5457L14.189 25.4977C14.2315 24.4348 14.6292 23.6065 15.4288 22.8947C15.6235 22.7219 15.8278 22.5765 16.0404 22.4476C16.0692 22.4298 16.1008 22.4147 16.1296 22.3969C16.7248 22.0664 17.4009 21.9004 18.1757 21.9004L18.4171 21.9073C19.65 21.9553 20.6004 22.3461 21.3588 23.1141L23.7369 18.7612C23.1842 18.3841 22.552 18.0494 21.8827 17.7902L21.8182 17.7683C21.7922 17.7587 21.7634 17.7464 21.736 17.7381C21.6509 17.7066 21.5673 17.675 21.4809 17.6462C20.7924 17.4062 19.9929 17.2348 19.1645 17.1635L19.1275 17.1608C19.0822 17.1553 19.0685 17.1525 19.0507 17.1512C18.93 17.1443 18.808 17.1292 18.6873 17.1237C18.5721 17.1196 18.4294 17.1155 18.2868 17.1141H18.28H18.2045C18.1894 17.1141 18.1702 17.1141 18.1524 17.1141C16.6836 17.1141 15.293 17.4529 14.0464 18.0536C12.6365 18.7475 11.4777 19.7788 10.6411 21.0488L10.6219 21.0803C9.74967 22.3928 9.22852 24.011 9.22852 25.7541C9.22852 25.7733 9.22852 25.7898 9.22852 25.8076C9.22578 27.995 10.0075 29.9164 11.5613 31.5306C13.1851 33.2257 15.2916 34.1377 17.8233 34.246Z" fill="#0068B0"/>
<path d="M42.1035 25.188V25.1947L42.1048 25.1987L42.1035 25.188Z" fill="black"/>
<path d="M13.9961 18.4002C14.0123 18.3921 14.0312 18.3867 14.0475 18.3786L14.0529 18.3759L13.9961 18.4002Z" fill="black"/>
<path d="M19.0273 17.6671C19.0328 17.6671 19.0463 17.6698 19.053 17.6698C19.0571 17.6698 19.0625 17.6712 19.0665 17.6712L19.0273 17.6671Z" fill="black"/>
<path d="M27.1191 19.5838L27.1271 19.5785L27.1363 19.5706L27.1191 19.5838Z" fill="black"/>
<path d="M29.5645 18.2566C29.585 18.2484 29.607 18.2442 29.6289 18.236C29.6317 18.2346 29.6344 18.2333 29.6344 18.2333L29.5645 18.2566Z" fill="black"/>
<path d="M40.7324 21.3218C40.7378 21.3285 40.7405 21.3378 40.7458 21.3445L40.7498 21.3499L40.7324 21.3218Z" fill="black"/>
</svg>
